<?xml version="1.0" encoding="UTF-8"?>
<svg version="1.1" xmlns="http://www.w3.org/2000/svg" width="1320" height="1000">
<path d="M0 0 C435.6 0 871.2 0 1320 0 C1320 330 1320 660 1320 1000 C884.4 1000 448.8 1000 0 1000 C0 670 0 340 0 0 Z " fill="#FBFBFB" transform="translate(0,0)"/>
<path d="M0 0 C13.46834342 7.90533201 21.37711529 18.81629833 25.9375 33.6640625 C30.21012928 54.44982657 29.61360124 79.9623279 18.7265625 98.52734375 C14.52428406 104.7135664 10.07062077 108.88041899 3.515625 112.4765625 C11.32005908 118.38800618 18.80443744 122.72339236 28.515625 124.4765625 C28.94849851 128.91351599 28.30944238 132.05415324 25.90234375 135.86328125 C22.80307996 139.46890363 18.90023338 141.07288534 14.27734375 141.85546875 C4.88090418 142.35855964 -1.80135811 136.77541025 -8.671875 130.9765625 C-10.6885769 129.30325011 -12.70527522 127.62995386 -14.72412109 125.95922852 C-16.21156123 124.70635418 -17.65951079 123.40682006 -19.09765625 122.09765625 C-22.0802232 120.07185382 -23.90614514 120.04353529 -27.484375 120.0390625 C-40.55681545 119.37361021 -50.93236984 113.63457438 -59.734375 104.1640625 C-70.00022436 91.4810464 -72.86943418 75.49599933 -72.734375 59.6640625 C-72.72688232 58.51204346 -72.71938965 57.36002441 -72.71166992 56.1730957 C-72.48329218 38.16187443 -69.25514981 21.67428694 -56.31640625 8.22265625 C-51.79946666 4.00114473 -47.25436624 0.73098848 -41.484375 -1.5234375 C-40.25460937 -2.05517578 -40.25460937 -2.05517578 -39 -2.59765625 C-27.0497539 -5.74455439 -11.2220928 -5.37100163 0 0 Z " fill="#131313" transform="translate(677.484375,619.5234375)"/>
<path d="M0 0 C0.9486644 -0.00637985 1.8973288 -0.0127597 2.8747406 -0.01933289 C3.91002396 -0.02044571 4.94530731 -0.02155853 6.01196289 -0.02270508 C7.07443741 -0.02603348 8.13691193 -0.02936188 9.23158264 -0.03279114 C11.49048427 -0.03786862 13.74939345 -0.04019921 16.00830078 -0.04003906 C19.43868757 -0.0422073 22.86874325 -0.06030343 26.29907227 -0.0793457 C28.49503471 -0.08228324 30.69099868 -0.08426562 32.88696289 -0.08520508 C33.90402817 -0.09239059 34.92109344 -0.09957611 35.96897888 -0.10697937 C49.87374018 -0.06319399 63.44492051 3.0055104 73.54711914 13.14526367 C88.07948095 31.87075754 88.1099668 55.40064165 86.54711914 78.14526367 C85.19548897 88.14732691 82.04433513 97.29369843 75.54711914 105.14526367 C74.96961914 106.01151367 74.39211914 106.87776367 73.79711914 107.77026367 C63.74140232 118.38463143 51.40350214 120.80503514 37.29077148 121.24731445 C33.58401017 121.30754996 29.87936358 121.33037637 26.17211914 121.33276367 C24.40082642 121.33397217 24.40082642 121.33397217 22.59375 121.33520508 C15.90312785 121.29402639 9.25642504 121.04783148 2.57983398 120.63476562 C1.80274582 120.58782814 1.02565765 120.54089066 0.22502136 120.49253082 C-1.667689 120.37802926 -3.56029627 120.26182568 -5.45288086 120.14526367 C-5.47621032 104.64686511 -5.49386027 89.14846786 -5.50469303 73.65005589 C-5.50985589 66.45436072 -5.51689839 59.25867645 -5.52832031 52.06298828 C-5.53826746 45.79341673 -5.54473436 39.52385306 -5.54696935 33.25427383 C-5.54827641 29.93260747 -5.55188083 26.61096901 -5.55861092 23.28930855 C-5.56581714 19.5870642 -5.56687198 15.88486736 -5.56640625 12.18261719 C-5.57000153 11.07347458 -5.5735968 9.96433197 -5.57730103 8.82157898 C-5.57592636 7.81891998 -5.5745517 6.81626099 -5.57313538 5.78321838 C-5.57405717 4.90659326 -5.57497896 4.02996813 -5.57592869 3.1267786 C-5.34151703 -0.64809665 -3.28271249 0.0149303 0 0 Z " fill="#121212" transform="translate(449.452880859375,616.854736328125)"/>
<path d="M0 0 C1.10472656 -0.00128906 2.20945313 -0.00257813 3.34765625 -0.00390625 C5.07822266 0.00189453 5.07822266 0.00189453 6.84375 0.0078125 C7.99746094 0.00394531 9.15117187 0.00007812 10.33984375 -0.00390625 C11.99693359 -0.00197266 11.99693359 -0.00197266 13.6875 0 C15.20633789 0.00169189 15.20633789 0.00169189 16.75585938 0.00341797 C19.34375 0.1328125 19.34375 0.1328125 22.34375 1.1328125 C23.30078125 3.265625 23.30078125 3.265625 24.15625 6.2578125 C24.49527344 7.43601562 24.83429688 8.61421875 25.18359375 9.828125 C26.84057552 15.90807385 28.41606981 22.01008474 29.98486328 28.11328125 C31.72558283 34.86171505 33.58694591 41.56543499 35.53125 48.2578125 C41.86789882 70.22228256 41.86789882 70.22228256 41.34375 79.1328125 C42.00375 79.1328125 42.66375 79.1328125 43.34375 79.1328125 C43.45332031 78.22660156 43.56289063 77.32039062 43.67578125 76.38671875 C44.46637739 70.88014073 45.77341773 65.48536003 47.03125 60.0703125 C47.29744141 58.92143555 47.56363281 57.77255859 47.83789062 56.58886719 C49.96524764 47.52132074 52.30996155 38.53203487 54.84375 29.5703125 C55.92968228 25.71299053 56.91077901 21.84241007 57.84375 17.9453125 C58.09511719 16.93114258 58.34648437 15.91697266 58.60546875 14.87207031 C59.08679298 12.9232165 59.54872332 10.96943896 59.98828125 9.01074219 C61.60476903 2.61332636 61.60476903 2.61332636 64.80078125 0.53515625 C69.89436471 -0.04327715 74.90876362 -0.11540318 80.03125 -0.0546875 C81.59842773 -0.0537207 81.59842773 -0.0537207 83.19726562 -0.05273438 C90.92139888 -0.00797121 90.92139888 -0.00797121 94.34375 1.1328125 C96.24009953 23.75514385 98.115288 46.37910962 99.93673515 69.00760651 C100.27095188 73.15968701 100.60652295 77.3116489 100.94506836 81.46337891 C101.28203444 85.59600442 101.61587054 89.72887165 101.94747353 93.86193085 C102.07197069 95.40725214 102.19753978 96.95248751 102.32427025 98.49762726 C103.52034927 113.09856072 103.52034927 113.09856072 103.34375 120.1328125 C100.51963235 121.07418505 98.81456968 121.25006632 95.89453125 121.23046875 C95.04697266 121.22724609 94.19941406 121.22402344 93.32617188 121.22070312 C92.44509766 121.21232422 91.56402344 121.20394531 90.65625 121.1953125 C89.76357422 121.19080078 88.87089844 121.18628906 87.95117188 121.18164062 C85.74863013 121.16986233 83.54622401 121.15341414 81.34375 121.1328125 C80.34501632 115.88892485 79.96503804 110.68029406 79.625 105.36328125 C79.53113762 103.94505066 79.53113762 103.94505066 79.43537903 102.49816895 C79.23442775 99.43911341 79.03858808 96.37976311 78.84375 93.3203125 C78.77682953 92.28081451 78.70990906 91.24131653 78.64096069 90.1703186 C77.29213549 69.16312236 76.0830439 48.19207162 76.34375 27.1328125 C75.68375 27.1328125 75.02375 27.1328125 74.34375 27.1328125 C74.17939453 28.52113281 74.17939453 28.52113281 74.01171875 29.9375 C73.26594152 35.13060848 71.94363547 40.17712129 70.65625 45.2578125 C70.39005859 46.31605225 70.12386719 47.37429199 69.84960938 48.46459961 C67.910524 56.09375993 65.81208624 63.66643094 63.60595703 71.22216797 C61.32101896 79.08349666 59.26539065 86.99897427 57.25976562 94.93579102 C57.02322266 95.86190186 56.78667969 96.7880127 56.54296875 97.7421875 C56.33502686 98.56686523 56.12708496 99.39154297 55.9128418 100.24121094 C55.34375 102.1328125 55.34375 102.1328125 54.34375 103.1328125 C52.63602642 103.21995081 50.92476351 103.23981257 49.21484375 103.23046875 C47.66313477 103.22563477 47.66313477 103.22563477 46.08007812 103.22070312 C44.99146484 103.21232422 43.90285156 103.20394531 42.78125 103.1953125 C41.1425293 103.18854492 41.1425293 103.18854492 39.47070312 103.18164062 C36.76166505 103.16981076 34.05273401 103.15332793 31.34375 103.1328125 C29.42873363 97.52628614 27.65338633 91.9106076 26.09375 86.1953125 C25.88613037 85.4415332 25.67851074 84.68775391 25.46459961 83.91113281 C23.31507015 76.08187612 21.2082982 68.2408513 19.10644531 60.39868164 C16.21985976 49.63405153 13.28066001 38.88380179 10.34375 28.1328125 C10.29807892 28.99042175 10.25240784 29.84803101 10.20535278 30.73162842 C9.76910584 38.90782976 9.32833251 47.08377279 8.88276863 55.25947189 C8.65398217 59.46029147 8.42680429 63.66118381 8.20361328 67.86230469 C6.30475746 103.5632232 6.30475746 103.5632232 4.34375 120.1328125 C0.60823888 121.15722963 -2.77365492 121.26603834 -6.65625 121.2578125 C-8.4815625 121.26167969 -8.4815625 121.26167969 -10.34375 121.265625 C-13.03758878 121.15761731 -15.09508836 120.835179 -17.65625 120.1328125 C-17.09393287 105.1957759 -16.24223182 90.3105081 -15.0625 75.41015625 C-14.90911651 73.43960102 -14.75600563 71.46902455 -14.60314941 69.49842834 C-14.28624384 65.42380326 -13.96669471 61.34939773 -13.64501953 57.27514648 C-13.23363709 52.0629649 -12.8282268 46.85033892 -12.42462921 41.6375494 C-12.11094771 37.59249593 -11.79462994 33.54765208 -11.47746277 29.50287056 C-11.32685313 27.5792447 -11.17695104 25.65556331 -11.02778625 23.73182487 C-10.81996585 21.0579011 -10.60870153 18.38427131 -10.39648438 15.71069336 C-10.33619553 14.92683258 -10.27590668 14.1429718 -10.21379089 13.33535767 C-9.88329595 9.22144108 -9.40474269 5.19729194 -8.65625 1.1328125 C-5.51733918 0.08650889 -3.29331954 0.00366856 0 0 Z " fill="#151515" transform="translate(215.65625,616.8671875)"/>
<path d="M0 0 C0.95577438 -0.01606293 1.91154877 -0.03212585 2.89628601 -0.04867554 C7.32668403 -0.0933099 11.75692861 -0.13429753 16.1875 -0.15722656 C18.51019394 -0.17366414 20.83283992 -0.20078896 23.15527344 -0.23925781 C53.58962449 -0.74064745 53.58962449 -0.74064745 65.83911133 9.45849609 C74.08939236 17.97739093 75.91838223 26.55554718 75.88671875 38.00244141 C75.75614268 44.42604132 74.83676593 49.5972236 71.51879883 55.19287109 C71.17977539 55.82064453 70.84075195 56.44841797 70.49145508 57.09521484 C67.10906028 62.59612026 61.87133293 65.77348523 56.51879883 69.19287109 C57.43918945 69.89412109 58.35958008 70.59537109 59.30786133 71.31787109 C62.42490262 73.92850744 64.11134015 76.50128154 65.89379883 80.19287109 C66.17779541 80.77738037 66.46179199 81.36188965 66.75439453 81.96411133 C69.8178284 88.46529732 72.27709379 95.22689361 74.6784668 101.99560547 C76.42641352 106.81441575 78.235729 110.20035629 81.51879883 114.19287109 C80.25601751 117.98121504 78.9976693 118.41298387 75.51879883 120.19287109 C72.36554608 121.16984043 69.37576874 121.41855427 66.08129883 121.50537109 C64.69104492 121.56144531 64.69104492 121.56144531 63.27270508 121.61865234 C59.61063987 121.0524607 58.11026575 119.81900647 55.51879883 117.19287109 C53.92895508 114.33740234 53.92895508 114.33740234 52.58129883 111.00537109 C52.20908203 110.10202026 52.20908203 110.10202026 51.8293457 109.18041992 C50.15264949 105.03460903 48.69497495 100.8267934 47.26635742 96.59033203 C43.88052229 86.06925895 43.88052229 86.06925895 37.51879883 77.19287109 C31.0879942 74.32203605 31.0879942 74.32203605 17.51879883 74.19287109 C17.51879883 89.37287109 17.51879883 104.55287109 17.51879883 120.19287109 C14.13303589 120.87002368 11.666892 121.32017393 8.34692383 121.32568359 C7.22737305 121.32761719 7.22737305 121.32761719 6.08520508 121.32958984 C4.93858398 121.32378906 4.93858398 121.32378906 3.76879883 121.31787109 C2.98891602 121.32173828 2.2090332 121.32560547 1.40551758 121.32958984 C-4.35449984 121.31957242 -4.35449984 121.31957242 -5.48120117 120.19287109 C-5.5792177 118.65166269 -5.60751964 117.10596741 -5.60818481 115.56164551 C-5.61100464 114.56043167 -5.61382446 113.55921783 -5.61672974 112.52766418 C-5.61470551 111.42009262 -5.61268127 110.31252106 -5.6105957 109.17138672 C-5.61234802 108.01217209 -5.61410034 106.85295746 -5.61590576 105.65861511 C-5.62032712 101.80543546 -5.61738528 97.95230126 -5.61401367 94.09912109 C-5.61468663 91.43493594 -5.61565487 88.77075219 -5.61691284 86.10656738 C-5.61873439 80.51439923 -5.61632862 74.92224427 -5.61157227 69.33007812 C-5.60612967 62.85614608 -5.60789234 56.38224551 -5.61339867 49.90831423 C-5.61793023 44.35927704 -5.61858014 38.81024936 -5.61596 33.26121092 C-5.61439746 29.94291801 -5.61459292 26.62464323 -5.61749649 23.30635071 C-5.62002134 19.60899695 -5.61618478 15.91170462 -5.6105957 12.21435547 C-5.61261993 11.10678391 -5.61464417 9.99921234 -5.61672974 8.858078 C-5.61390991 7.85686417 -5.61109009 6.85565033 -5.60818481 5.82409668 C-5.60780779 4.94877037 -5.60743076 4.07344406 -5.60704231 3.17159271 C-5.36717332 -0.6000988 -3.28628554 0.05008667 0 0 Z " fill="#131313" transform="translate(949.481201171875,616.80712890625)"/>
<path d="M0 0 C2.20770805 -0.08165496 4.41630425 -0.13948488 6.625 -0.1875 C7.85476563 -0.22230469 9.08453125 -0.25710938 10.3515625 -0.29296875 C14.37959804 0.03048164 16.63759361 0.77927028 20 3 C23.29677448 6.96461428 23.37683375 10.33217606 23.38476562 15.38549805 C23.3901384 16.11143661 23.39551117 16.83737518 23.40104675 17.58531189 C23.41080199 19.15614353 23.41377572 20.72702891 23.41069031 22.2978878 C23.40619496 24.79226002 23.42026303 27.28592913 23.43908691 29.78022766 C23.47582052 35.08264034 23.48955748 40.38497888 23.5 45.6875 C23.51211803 51.81852798 23.53390631 57.94921294 23.58000183 64.08008766 C23.59346672 66.52282717 23.58941934 68.96512132 23.58459473 71.40788269 C23.61682649 80.51473776 24.04736409 88.77610569 28.625 96.875 C33.81952302 101.52273113 39.77104407 103.68552216 46.734375 103.3203125 C52.05302097 102.568366 56.42208753 101.12207109 60.8125 98 C68.150304 87.93672594 67.58892902 76.68713608 67.57421875 64.8046875 C67.58668123 62.96191083 67.60102022 61.11914599 67.61714172 59.27639771 C67.65494392 54.46001685 67.67032045 49.64384118 67.67993164 44.82733154 C67.69978182 37.08400115 67.75639497 29.34082507 67.80869484 21.59766006 C67.82406804 18.89369597 67.83123344 16.18980945 67.83683777 13.48580933 C67.84384827 11.84324097 67.85094873 10.20067299 67.8581543 8.55810547 C67.85762558 7.80287094 67.85709686 7.04763641 67.85655212 6.26951599 C67.88677403 1.11322597 67.88677403 1.11322597 69 0 C70.37999937 -0.09865116 71.76491799 -0.13079023 73.1484375 -0.1328125 C73.98890625 -0.13410156 74.829375 -0.13539063 75.6953125 -0.13671875 C77.02175781 -0.13091797 77.02175781 -0.13091797 78.375 -0.125 C79.2515625 -0.12886719 80.128125 -0.13273438 81.03125 -0.13671875 C82.29582031 -0.13478516 82.29582031 -0.13478516 83.5859375 -0.1328125 C84.3598584 -0.13168457 85.1337793 -0.13055664 85.93115234 -0.12939453 C88 0 88 0 91 1 C91.04647606 11.64913007 91.08194653 22.29823574 91.10362434 32.94744682 C91.11403206 37.89306106 91.12813592 42.83860557 91.15087891 47.78417969 C91.1727151 52.5628337 91.18459125 57.34142092 91.18975449 62.120121 C91.19343097 63.9372373 91.20060992 65.75435021 91.21146011 67.57143784 C91.31580682 85.78160825 91.31580682 85.78160825 89 94 C88.75121094 94.928125 88.50242187 95.85625 88.24609375 96.8125 C83.97233794 108.37435146 76.07808665 114.59687225 65.33203125 119.72265625 C53.43346845 124.28400447 35.0953972 124.11907043 23.3671875 119.2578125 C12.33638574 113.3965614 5.23741553 104.71417764 1 93 C-0.17691567 88.47351888 -0.13426756 83.99787996 -0.11352539 79.35424805 C-0.11367142 78.4952037 -0.11381744 77.63615936 -0.1139679 76.75108337 C-0.11327312 73.92126918 -0.10550111 71.0915214 -0.09765625 68.26171875 C-0.09579052 66.29588354 -0.09436735 64.33004787 -0.09336853 62.36421204 C-0.08955553 57.19720164 -0.07973562 52.03021948 -0.06866455 46.86322021 C-0.05842427 41.58785382 -0.0538653 36.31248285 -0.04882812 31.03710938 C-0.03811227 20.69139386 -0.02105045 10.34569928 0 0 Z " fill="#121212" transform="translate(726,617)"/>
<path d="M0 0 C1.29461655 0.00222061 2.58923309 0.00444122 3.92308044 0.00672913 C4.99131546 0.00651009 4.99131546 0.00651009 6.08113098 0.00628662 C8.4457143 0.00698581 10.81021979 0.01477846 13.17478943 0.02259827 C14.81003781 0.02446243 16.44528675 0.02588634 18.08053589 0.02688599 C22.39273103 0.03071134 26.7048927 0.04054177 31.01707458 0.05158997 C35.41404263 0.06180371 39.81101607 0.06638353 44.20799255 0.07142639 C52.84147149 0.08216402 61.47492317 0.09924065 70.10838318 0.12025452 C70.91079398 3.15620882 71.271362 5.8467352 71.29588318 8.99525452 C71.31006287 9.81767639 71.32424255 10.64009827 71.33885193 11.48744202 C71.10838318 14.12025452 71.10838318 14.12025452 69.10838318 20.12025452 C52.60838318 20.12025452 36.10838318 20.12025452 19.10838318 20.12025452 C19.10838318 30.02025452 19.10838318 39.92025452 19.10838318 50.12025452 C32.96838318 50.12025452 46.82838318 50.12025452 61.10838318 50.12025452 C61.10838318 56.06025452 61.10838318 62.00025452 61.10838318 68.12025452 C60.10838318 69.12025452 60.10838318 69.12025452 56.32298279 69.23377991 C54.63555588 69.23362074 52.94812413 69.22792369 51.26072693 69.21791077 C49.93108665 69.21578835 49.93108665 69.21578835 48.57458496 69.21362305 C45.73165064 69.20800667 42.88879387 69.19545143 40.04588318 69.18275452 C38.12335827 69.17774162 36.20083213 69.17317835 34.27830505 69.16908264 C29.55494354 69.158881 24.8317506 69.13930889 20.10838318 69.12025452 C20.10838318 79.35025452 20.10838318 89.58025452 20.10838318 100.12025452 C37.92838318 100.12025452 55.74838318 100.12025452 74.10838318 100.12025452 C74.10838318 110.82025452 74.10838318 110.82025452 71.10838318 115.12025452 C65.39666448 120.51047306 58.89250928 119.71563156 51.38963318 119.68666077 C50.04494294 119.69190196 48.70025639 119.69818026 47.35557556 119.70544434 C44.54464857 119.71582358 41.73422861 119.71132301 38.92332458 119.69667053 C35.33180253 119.67947551 31.74187934 119.70299629 28.15053558 119.73816013 C25.37595645 119.76018244 22.60175723 119.75868148 19.82711792 119.75039482 C17.86292847 119.74918285 15.89876233 119.76906465 13.93467712 119.78933716 C4.00733119 119.68577821 4.00733119 119.68577821 0.3759613 116.83094788 C-2.79578133 113.03940411 -4.14223668 110.46664679 -4.13885498 105.50790405 C-4.14304947 104.58670776 -4.14724396 103.66551147 -4.15156555 102.71640015 C-4.14594604 101.7131218 -4.14032654 100.70984344 -4.13453674 99.67616272 C-4.13643509 98.61404572 -4.13833344 97.55192871 -4.14028931 96.45762634 C-4.14399555 92.94535452 -4.13329665 89.43328922 -4.12208557 85.92103577 C-4.1208938 83.48534164 -4.1204406 81.04964704 -4.12069702 78.61395264 C-4.11913253 73.51047386 -4.11084391 68.40706526 -4.09742737 63.30360413 C-4.0804106 56.74593122 -4.0766138 50.18833529 -4.07737255 43.63064289 C-4.07710133 38.60282652 -4.07162833 33.57502715 -4.06437111 28.54721642 C-4.06117865 26.12817196 -4.0592157 23.70912557 -4.0584774 21.29007912 C-4.05632146 17.91873989 -4.04759427 14.54748416 -4.03688049 11.17616272 C-4.03733368 10.16681168 -4.03778687 9.15746063 -4.03825378 8.11752319 C-4.0339888 7.20478638 -4.02972382 6.29204956 -4.02532959 5.35165405 C-4.02365375 4.55396764 -4.0219779 3.75628122 -4.02025127 2.93442249 C-3.80179681 -0.14650244 -3.12472922 0.12994903 0 0 Z " fill="#141414" transform="translate(847.8916168212891,617.8797454833984)"/>
<path d="M0 0 C1.31238144 0.00222061 2.62476288 0.00444122 3.97691345 0.00672913 C4.6988237 0.0065831 5.42073395 0.00643707 6.16452026 0.00628662 C8.56156879 0.00698583 10.95854054 0.01477857 13.35557556 0.02259827 C15.0132442 0.02446242 16.67091338 0.02588633 18.32858276 0.02688599 C22.69996145 0.03071139 27.07130712 0.04054186 31.44267273 0.05158997 C35.89996392 0.0618036 40.35726043 0.0663835 44.81455994 0.07142639 C53.56652824 0.08216412 62.31846968 0.0992408 71.07041931 0.12025452 C71.12486451 2.32830976 71.16341215 4.53676006 71.19541931 6.74525452 C71.21862244 7.97502014 71.24182556 9.20478577 71.26573181 10.47181702 C71.07041931 14.12025452 71.07041931 14.12025452 69.07041931 20.12025452 C52.57041931 20.12025452 36.07041931 20.12025452 19.07041931 20.12025452 C19.07041931 30.02025452 19.07041931 39.92025452 19.07041931 50.12025452 C32.93041931 50.12025452 46.79041931 50.12025452 61.07041931 50.12025452 C61.07041931 56.39025452 61.07041931 62.66025452 61.07041931 69.12025452 C47.21041931 69.12025452 33.35041931 69.12025452 19.07041931 69.12025452 C19.07041931 79.35025452 19.07041931 89.58025452 19.07041931 100.12025452 C37.22041931 100.12025452 55.37041931 100.12025452 74.07041931 100.12025452 C74.07041931 110.82025452 74.07041931 110.82025452 71.07041931 115.12025452 C65.35870062 120.51047306 58.85454541 119.71563156 51.35166931 119.68666077 C50.00697908 119.69190196 48.66229252 119.69818026 47.31761169 119.70544434 C44.5066847 119.71582358 41.69626474 119.71132301 38.88536072 119.69667053 C35.29383866 119.67947551 31.70391547 119.70299629 28.11257172 119.73816013 C25.33799258 119.76018244 22.56379336 119.75868148 19.78915405 119.75039482 C17.8249646 119.74918285 15.86079846 119.76906465 13.89671326 119.78933716 C3.96936733 119.68577821 3.96936733 119.68577821 0.33799744 116.83094788 C-2.8337452 113.03940411 -4.18020055 110.46664679 -4.17681885 105.50790405 C-4.18101334 104.58670776 -4.18520782 103.66551147 -4.18952942 102.71640015 C-4.18390991 101.7131218 -4.17829041 100.70984344 -4.17250061 99.67616272 C-4.17439896 98.61404572 -4.1762973 97.55192871 -4.17825317 96.45762634 C-4.18195942 92.94535452 -4.17126052 89.43328922 -4.16004944 85.92103577 C-4.15885767 83.48534164 -4.15840447 81.04964704 -4.15866089 78.61395264 C-4.15709639 73.51047386 -4.14880777 68.40706526 -4.13539124 63.30360413 C-4.11837446 56.74593122 -4.11457767 50.18833529 -4.11533642 43.63064289 C-4.1150652 38.60282652 -4.1095922 33.57502715 -4.10233498 28.54721642 C-4.09914252 26.12817196 -4.09717956 23.70912557 -4.09644127 21.29007912 C-4.09428533 17.91873989 -4.08555814 14.54748416 -4.07484436 11.17616272 C-4.07529755 10.16681168 -4.07575073 9.15746063 -4.07621765 8.11752319 C-4.07195267 7.20478638 -4.06768768 6.29204956 -4.06329346 5.35165405 C-4.06161761 4.55396764 -4.05994177 3.75628122 -4.05821514 2.93442249 C-3.83846026 -0.16484253 -3.14681188 0.1291715 0 0 Z " fill="#131313" transform="translate(347.92958068847656,617.8797454833984)"/>
<path d="M0 0 C3.83973812 -0.09397921 7.67947225 -0.15274963 11.52001953 -0.20507812 C12.64794922 -0.23480713 13.77587891 -0.26453613 14.93798828 -0.29516602 C21.40581359 -0.34246 25.45068682 0.02438274 30.58251953 4.10742188 C32.43380188 6.29555889 33.85257086 8.62144442 35.27001953 11.10742188 C35.89928345 12.16074707 35.89928345 12.16074707 36.54125977 13.23535156 C37.44134908 14.74513618 38.33414735 16.2592875 39.22021484 17.77734375 C41.01823203 20.85266203 42.85865282 23.9016242 44.69750977 26.95263672 C46.20484831 29.45681696 47.70447914 31.96551003 49.20361328 34.47460938 C52.30480638 39.65529542 55.43649635 44.81717294 58.57495117 49.9753418 C60.00004731 52.31760859 61.42231869 54.66155223 62.84204102 57.00708008 C66.34152366 62.78646519 69.85398518 68.55650402 73.41287231 74.29956055 C75.11017076 77.04353238 76.79571375 79.7946149 78.47943115 82.54693604 C79.29335965 83.87112218 80.11252425 85.19210514 80.93707275 86.50970459 C82.08510452 88.34548977 83.21444878 90.19159 84.34033203 92.04101562 C84.99146973 93.09345459 85.64260742 94.14589355 86.31347656 95.23022461 C87.7323441 98.44710686 87.67106128 99.8217505 86.58251953 103.10742188 C79.48119953 105.80549178 71.53375108 106.50168868 64.14111328 104.41992188 C62.12289981 103.47203296 60.39591071 102.40152376 58.58251953 101.10742188 C58.01533203 100.76453125 57.44814453 100.42164063 56.86376953 100.06835938 C50.52801101 95.60452951 47.48722631 88.1769988 43.91162109 81.53076172 C37.22046923 69.33084008 29.85926694 57.46400614 22.58251953 45.60742188 C22.0549707 44.74157471 21.52742187 43.87572754 20.98388672 42.98364258 C16.40578956 34.94397321 16.40578956 34.94397321 9.58251953 29.10742188 C7.44335568 29.02588521 5.3015548 29.01084479 3.16088867 29.02563477 C2.5021727 29.02870132 1.84345673 29.03176788 1.16477966 29.03492737 C-0.26701504 29.04208645 -1.69879989 29.05147854 -3.13056755 29.06282234 C-5.39569117 29.08018056 -7.66074456 29.0905015 -9.92591858 29.09873962 C-16.36677706 29.1232226 -22.80754096 29.15878589 -29.24829102 29.20336914 C-33.18630408 29.23013482 -37.12426232 29.24718919 -41.06234932 29.25823784 C-42.56428618 29.26445209 -44.06621225 29.27446298 -45.56809807 29.28831673 C-47.66762134 29.30750929 -49.76685597 29.31442561 -51.86645508 29.31860352 C-53.06177353 29.32606094 -54.25709198 29.33351837 -55.4886322 29.34120178 C-58.41748047 29.10742188 -58.41748047 29.10742188 -61.41748047 27.10742188 C-60.77686674 23.95417876 -59.66572302 21.56427205 -58.04248047 18.79492188 C-56.44360758 16.02080909 -55.07808199 13.36240627 -53.97998047 10.35742188 C-51.94774644 6.1303751 -49.2892473 3.13756566 -44.70849609 1.49438477 C-41.38322726 0.93273184 -38.06248369 0.8690225 -34.69873047 0.79101562 C-33.55477562 0.75950409 -33.55477562 0.75950409 -32.38771057 0.72735596 C-29.89774019 0.66084726 -27.40768623 0.60190361 -24.91748047 0.54492188 C-24.07055634 0.52507233 -23.2236322 0.50522278 -22.3510437 0.48477173 C-17.18398243 0.36535677 -12.01674916 0.25875158 -6.8493042 0.1574707 C-4.56603212 0.11047918 -2.28304945 0.05667993 0 0 Z " fill="#121212" transform="translate(612.41748046875,214.892578125)"/>
<path d="M0 0 C3.27501647 -0.04366765 6.54988358 -0.07486023 9.82507324 -0.10186768 C10.77232269 -0.11697891 11.71957214 -0.13209015 12.69552612 -0.1476593 C13.54732452 -0.15180344 14.39912292 -0.15594757 15.2767334 -0.16021729 C16.00945465 -0.16790634 16.7421759 -0.1755954 17.49710083 -0.18351746 C19.28601074 0.05047607 19.28601074 0.05047607 21.28601074 2.05047607 C20.73199138 9.62562546 16.62484585 16.30234483 11.78601074 21.98797607 C5.92419159 26.82397687 1.78641529 29.13262108 -5.76013184 29.2399292 C-6.76671341 29.25664673 -7.77329498 29.27336426 -8.81037903 29.29058838 C-9.89876572 29.30416382 -10.9871524 29.31773926 -12.10852051 29.33172607 C-13.24689865 29.3501355 -14.38527679 29.36854492 -15.55815125 29.38751221 C-19.21421132 29.44623433 -22.87032204 29.49888909 -26.52648926 29.55047607 C-34.78503014 29.67030303 -43.04292011 29.8036633 -51.30047607 29.97967529 C-53.56563686 30.02665773 -55.83090588 30.06869664 -58.09625244 30.10565186 C-61.26522452 30.16146901 -64.43250921 30.24296357 -67.60070801 30.33172607 C-69.0076165 30.35003479 -69.0076165 30.35003479 -70.44294739 30.36871338 C-76.1237486 30.56195062 -79.3429774 31.34142139 -83.71398926 35.05047607 C-85.00643953 36.88272554 -85.00643953 36.88272554 -85.58898926 38.80047607 C-85.96023926 39.87297607 -86.33148926 40.94547607 -86.71398926 42.05047607 C-87.37398926 42.05047607 -88.03398926 42.05047607 -88.71398926 42.05047607 C-89.70398926 45.02047607 -90.69398926 47.99047607 -91.71398926 51.05047607 C-92.37398926 51.05047607 -93.03398926 51.05047607 -93.71398926 51.05047607 C-94.70398926 54.02047607 -95.69398926 56.99047607 -96.71398926 60.05047607 C-97.37398926 60.05047607 -98.03398926 60.05047607 -98.71398926 60.05047607 C-99.70398926 63.02047607 -100.69398926 65.99047607 -101.71398926 69.05047607 C-102.37398926 69.05047607 -103.03398926 69.05047607 -103.71398926 69.05047607 C-104.70398926 72.02047607 -105.69398926 74.99047607 -106.71398926 78.05047607 C-107.37398926 78.05047607 -108.03398926 78.05047607 -108.71398926 78.05047607 C-109.70398926 81.02047607 -110.69398926 83.99047607 -111.71398926 87.05047607 C-112.37398926 87.05047607 -113.03398926 87.05047607 -113.71398926 87.05047607 C-113.96148926 87.68985107 -114.20898926 88.32922607 -114.46398926 88.98797607 C-115.71398926 91.05047607 -115.71398926 91.05047607 -117.79211426 91.67938232 C-118.42633301 91.80184326 -119.06055176 91.9243042 -119.71398926 92.05047607 C-123.12086537 87.80906258 -126.50593095 83.53492452 -129.58898926 79.05047607 C-129.97828613 78.49360107 -130.36758301 77.93672607 -130.76867676 77.36297607 C-132.55969454 72.98164331 -133.46647675 68.48783353 -132.04406738 63.8805542 C-130.97854958 61.60981274 -129.79398426 59.46494605 -128.52648926 57.30047607 C-128.07741211 56.49191162 -127.62833496 55.68334717 -127.16564941 54.85028076 C-125.70540748 52.23616236 -124.21237251 49.64289417 -122.71398926 47.05047607 C-121.69344623 45.25938553 -120.67391988 43.46771532 -119.65539551 41.67547607 C-118.12843828 38.99467748 -116.59801742 36.31613794 -115.05725098 33.64324951 C-111.33993631 27.19378703 -107.78813575 20.67594293 -104.33508301 14.08172607 C-103.80012207 13.08141357 -103.26516113 12.08110107 -102.71398926 11.05047607 C-102.27184082 10.17391357 -101.82969238 9.29735107 -101.37414551 8.39422607 C-98.94607786 4.96636586 -96.01824133 2.5414829 -91.8105011 1.64486694 C-89.53023084 1.44196161 -87.27657697 1.36903856 -84.98742676 1.33563232 C-84.0916391 1.30784195 -83.19585144 1.28005157 -82.2729187 1.25141907 C-79.08675179 1.16138275 -75.90096467 1.10458556 -72.71398926 1.05047607 C-70.79060274 1.01085924 -68.86721642 0.97123246 -66.94383621 0.93131065 C-58.17204984 0.75273284 -49.3997225 0.63160144 -40.62689209 0.51824951 C-37.58525482 0.47800269 -34.54367819 0.43391995 -31.50209427 0.38985252 C-23.54784693 0.27487368 -15.59356145 0.17603716 -7.63891602 0.09313965 C-5.09257184 0.06546113 -2.54625945 0.0346057 0 0 Z " fill="#131313" transform="translate(607.7139892578125,309.94952392578125)"/>
<path d="M0 0 C6.65990325 4.99819851 10.04036778 12.41429956 13.83496094 19.61767578 C19.77167881 30.87532156 26.14183532 41.87647305 32.71362305 52.77282715 C33.47507363 54.03579376 34.23470252 55.29986063 34.99243164 56.56506348 C36.06562611 58.35447031 37.14679416 60.13880018 38.23046875 61.921875 C38.85808105 62.95940918 39.48569336 63.99694336 40.13232422 65.06591797 C41.97154861 67.77999574 43.43538253 69.74940623 45.98828125 71.8046875 C49.21182605 72.42158949 49.21182605 72.42158949 52.86816406 72.35058594 C53.89316513 72.36609245 53.89316513 72.36609245 54.93887329 72.38191223 C57.1899584 72.41133106 59.44014405 72.4128391 61.69140625 72.4140625 C63.25512404 72.42904491 64.81882601 72.44577219 66.38250732 72.46417236 C70.49243905 72.50785193 74.60215732 72.52784611 78.71228027 72.54290771 C82.9085757 72.56247677 87.10464052 72.60444695 91.30078125 72.64453125 C99.52988759 72.71983982 107.75890338 72.77012713 115.98828125 72.8046875 C118.03781128 76.5647583 118.03781128 76.5647583 117.59204102 78.72412109 C116.59552404 80.88568561 115.59615409 83.04117435 114.55078125 85.1796875 C114.21884766 85.9221875 113.88691406 86.6646875 113.54492188 87.4296875 C111.01054267 92.75235403 107.92325487 96.52146367 102.98828125 99.8046875 C99.62531162 100.92567738 97.04593312 100.95219477 93.50073242 100.98168945 C92.8466893 100.98826065 92.19264618 100.99483185 91.51878357 101.00160217 C89.35627115 101.02129765 87.19382805 101.03298931 85.03125 101.04296875 C84.29127588 101.04704428 83.55130177 101.0511198 82.78890419 101.05531883 C78.87221177 101.0761636 74.95555422 101.09047217 71.03881836 101.09985352 C67.00027352 101.11091469 62.96228017 101.14531509 58.92393017 101.18502522 C55.81231179 101.21121038 52.70082447 101.21954699 49.58910561 101.22313499 C48.10079537 101.2279961 46.6124908 101.23959663 45.12428856 101.25817299 C43.03708952 101.2826069 40.95131291 101.28159286 38.86401367 101.2746582 C37.08555305 101.28345757 37.08555305 101.28345757 35.27116394 101.29243469 C29.97089776 100.50495911 26.91824057 98.03708576 23.7421875 93.828125 C22.99752861 92.62061582 22.26803617 91.40367307 21.55078125 90.1796875 C21.13739502 89.49729004 20.72400879 88.81489258 20.2980957 88.11181641 C14.99087077 79.28020988 9.89991558 70.31608134 4.7734375 61.37890625 C1.42981673 55.55734072 -1.96299594 49.76692765 -5.38671875 43.9921875 C-5.895979 43.13101318 -6.40523926 42.26983887 -6.92993164 41.38256836 C-9.35173175 37.2884578 -11.77707353 33.1965333 -14.21386719 29.11132812 C-16.18139639 25.81244178 -18.14158535 22.50927736 -20.09796143 19.20376587 C-20.86773326 17.90627219 -21.64011474 16.61032286 -22.41522217 15.31600952 C-23.50098561 13.50233053 -24.57756174 11.68348325 -25.65234375 9.86328125 C-26.58868652 8.29018188 -26.58868652 8.29018188 -27.54394531 6.68530273 C-28.93845742 3.94846834 -29.78699887 1.86333788 -30.01171875 -1.1953125 C-22.99110362 -8.21592763 -7.64439096 -4.54210414 0 0 Z " fill="#121212" transform="translate(649.01171875,437.1953125)"/>
<path d="M0 0 C6.68164916 1.97464546 8.69620787 7.28158449 12 13 C12.9590625 14.5159375 12.9590625 14.5159375 13.9375 16.0625 C16.68266022 23.65206061 15.10174847 30.34498027 11.85546875 37.51953125 C9.18304042 42.53244418 6.10573586 47.25226577 3.01000977 52.01196289 C-3.37864924 61.93708001 -8.83705872 72.36979817 -14.30322266 82.82324219 C-15.49079792 85.04665648 -16.71798908 87.24915537 -17.97412109 89.43457031 C-18.61559082 90.56217773 -19.25706055 91.68978516 -19.91796875 92.8515625 C-20.50731201 93.86299316 -21.09665527 94.87442383 -21.70385742 95.91650391 C-23.22854422 99.54370193 -23.34071572 102.09889064 -23 106 C-21.83057538 108.6247086 -20.66788591 110.88196033 -19.1875 113.3125 C-18.79312744 113.98748535 -18.39875488 114.6624707 -17.99243164 115.35791016 C-14.25369412 121.71224029 -10.37520183 127.99130599 -6.45581055 134.2355957 C-6.0050415 134.959646 -5.55427246 135.68369629 -5.08984375 136.4296875 C-4.48450806 137.39237549 -4.48450806 137.39237549 -3.86694336 138.37451172 C-3 140 -3 140 -3 142 C-2.34 142 -1.68 142 -1 142 C-0.62488281 142.7734375 -0.24976563 143.546875 0.13671875 144.34375 C2.52974242 149.21418609 4.87232996 153.95167531 7.9375 158.4375 C9.63411367 161.04767487 10.00615854 161.71054861 9.9375 164.9375 C9 167 9 167 7 168 C3.76361788 168.41599155 0.50651911 168.56088203 -2.75 168.75 C-3.64460937 168.81832031 -4.53921875 168.88664063 -5.4609375 168.95703125 C-10.79996757 169.2641436 -14.48994244 169.22146968 -19 166 C-24.90377491 160.61432776 -28.36852194 153.37284713 -32.125 146.4375 C-33.33371795 144.22664966 -34.54459021 142.0169755 -35.7578125 139.80859375 C-36.59747559 138.27887939 -36.59747559 138.27887939 -37.45410156 136.71826172 C-38.70414206 134.52022778 -39.99557315 132.42693286 -41.4296875 130.34765625 C-43 128 -43 128 -43 126 C-43.66 126 -44.32 126 -45 126 C-45.81498562 124.3970947 -46.62689927 122.79262722 -47.4375 121.1875 C-47.88996094 120.29417969 -48.34242188 119.40085937 -48.80859375 118.48046875 C-50 116 -50 116 -51 113 C-51.66 113 -52.32 113 -53 113 C-55.80014719 108.33308801 -57.1602667 104.35973945 -56 99 C-51.92925556 88.76775461 -45.78982821 79.26061014 -40.30078125 69.74609375 C-36.86009113 63.77448667 -33.48718622 57.76607438 -30.125 51.75 C-29.54468018 50.71286865 -28.96436035 49.6757373 -28.36645508 48.60717773 C-25.33094813 43.17955252 -22.30297727 37.74780816 -19.28125 32.3125 C-2.91687801 2.91687801 -2.91687801 2.91687801 0 0 Z " fill="#121212" transform="translate(587,371)"/>
<path d="M0 0 C1.04220703 -0.02900391 2.08441406 -0.05800781 3.15820312 -0.08789062 C9.19448427 -0.13777725 13.21696345 -0.02812235 17.8125 4.3125 C19.44744186 6.52705336 20.8317722 8.57420796 22.1875 10.9375 C22.54199219 11.52273437 22.89648438 12.10796875 23.26171875 12.7109375 C25.8125 17.00491675 25.8125 17.00491675 25.8125 19.3125 C26.4725 19.3125 27.1325 19.3125 27.8125 19.3125 C28.98404293 21.60179053 30.14988074 23.89368362 31.3125 26.1875 C31.64636719 26.83847656 31.98023438 27.48945313 32.32421875 28.16015625 C34.8125 33.0859375 34.8125 33.0859375 34.8125 35.3125 C35.4725 35.3125 36.1325 35.3125 36.8125 35.3125 C37.3075 37.7875 37.3075 37.7875 37.8125 40.3125 C38.4725 40.3125 39.1325 40.3125 39.8125 40.3125 C40.17601562 41.07433594 40.53953125 41.83617187 40.9140625 42.62109375 C43.38501197 47.69604382 45.81074597 52.46550173 49.1875 57 C51.68892893 60.66964244 52.71952263 63.42183463 52.29882812 67.88354492 C50.63575715 76.18971618 44.69738238 84.10774504 40.4375 91.3125 C39.18822478 93.43976524 37.93954725 95.56738158 36.69140625 97.6953125 C36.05090332 98.78618164 35.41040039 99.87705078 34.75048828 101.00097656 C31.60107693 106.3825104 28.48750413 111.78456237 25.375 117.1875 C24.75898926 118.25556885 24.14297852 119.3236377 23.50830078 120.42407227 C20.59714162 125.4730312 17.68980188 130.52413784 14.79100037 135.5802002 C13.78328041 137.33730482 12.7744982 139.09379524 11.76538086 140.85009766 C10.5075442 143.03995055 9.2516908 145.23094441 7.99829102 147.42333984 C6.28849349 150.39787659 4.5559626 153.35758729 2.8125 156.3125 C2.20148437 157.36711426 1.59046875 158.42172852 0.9609375 159.50830078 C0.35507812 160.51747559 -0.25078125 161.52665039 -0.875 162.56640625 C-1.41511719 163.47849854 -1.95523438 164.39059082 -2.51171875 165.33032227 C-3.06472656 165.98444092 -3.61773438 166.63855957 -4.1875 167.3125 C-8.1875 167.3125 -8.1875 167.3125 -9.96875 165.84375 C-15.89641468 158.8383281 -20.77313795 151.85839866 -20.1875 142.3125 C-18.65607727 134.29268094 -15.75964693 128.47951944 -11.02929688 121.92114258 C-8.17522453 117.87875618 -5.68206532 113.6455678 -3.1875 109.375 C-2.64714111 108.45058105 -2.10678223 107.52616211 -1.55004883 106.57373047 C-0.38367996 104.56917383 0.77920855 102.56258887 1.93896484 100.55419922 C3.24348325 98.29704578 4.55303052 96.0435216 5.86962891 93.79345703 C7.63224817 90.77771412 9.37481194 87.75109526 11.10522461 84.71676636 C12.1054461 82.97161692 13.12191278 81.23581049 14.13867188 79.50024414 C17.53693161 73.48555767 19.85199167 69.2636046 18.8125 62.3125 C17.41325055 59.01148869 17.41325055 59.01148869 15.8125 56.3125 C15.8125 55.6525 15.8125 54.9925 15.8125 54.3125 C15.1525 54.3125 14.4925 54.3125 13.8125 54.3125 C12.68497351 52.08458002 11.56041861 49.85524113 10.4375 47.625 C10.12039063 46.99916016 9.80328125 46.37332031 9.4765625 45.72851562 C7.75777919 42.30885299 6.16780783 38.89242926 4.8125 35.3125 C4.1525 35.3125 3.4925 35.3125 2.8125 35.3125 C1.68497351 33.08458002 0.56041861 30.85524113 -0.5625 28.625 C-0.87960937 27.99916016 -1.19671875 27.37332031 -1.5234375 26.72851562 C-3.24222081 23.30885299 -4.83219217 19.89242926 -6.1875 16.3125 C-6.8475 16.3125 -7.5075 16.3125 -8.1875 16.3125 C-9.05894869 14.7595724 -9.90903657 13.19464564 -10.75 11.625 C-11.22566406 10.75488281 -11.70132813 9.88476562 -12.19140625 8.98828125 C-13.33709745 5.91064019 -13.17801743 4.40313089 -12.1875 1.3125 C-9.71806675 -1.15693325 -3.31276842 0.03017093 0 0 Z " fill="#121212" transform="translate(738.1875,214.6875)"/>
<path d="M0 0 C1.875 0.0625 1.875 0.0625 4 1 C6.78390384 4.26408438 9.29071081 7.69380953 11.6875 11.25 C12.28949219 12.12140625 12.89148438 12.9928125 13.51171875 13.890625 C15.75129196 18.56962835 16.93687037 23.11558658 15.2902832 28.18505859 C14.23482821 30.3888668 13.06953296 32.46744507 11.8125 34.5625 C11.00566293 35.9799867 10.19966936 37.39795385 9.39453125 38.81640625 C8.9970166 39.50105957 8.59950195 40.18571289 8.18994141 40.89111328 C6.32498032 44.19631103 4.66775209 47.59165148 3 51 C2.34 51 1.68 51 1 51 C0.75378906 51.66773438 0.50757813 52.33546875 0.25390625 53.0234375 C-1.29203431 56.69324032 -3.15593633 60.13247549 -5.0625 63.625 C-7.84441474 68.66812506 -7.84441474 68.66812506 -10 74 C-10.66 74 -11.32 74 -12 74 C-12.20625 74.825 -12.4125 75.65 -12.625 76.5 C-14.582687 81.48320327 -17.29854696 86.71716118 -22.30245495 89.09336662 C-25.02718684 90.00913738 -27.03187811 90.24687013 -29.89118958 90.24050903 C-30.8488623 90.24325836 -31.80653503 90.24600769 -32.79322815 90.24884033 C-33.83188522 90.24164978 -34.8705423 90.23445923 -35.94067383 90.22705078 C-37.59499924 90.22748886 -37.59499924 90.22748886 -39.28274536 90.22793579 C-42.92425432 90.22654365 -46.56555808 90.2109876 -50.20703125 90.1953125 C-52.73337187 90.19158197 -55.25971394 90.18873518 -57.78605652 90.18673706 C-63.75352154 90.1798838 -69.72089863 90.16412453 -75.68832844 90.14403808 C-82.48395164 90.12166181 -89.2795784 90.11068131 -96.07522929 90.10064721 C-110.05019352 90.07975777 -124.02509273 90.0445926 -138 90 C-137.86191674 88.55826247 -137.71755912 87.11712496 -137.57055664 85.67626953 C-137.49084122 84.87367706 -137.41112579 84.07108459 -137.32899475 83.24417114 C-136.24838061 75.87298039 -130.53571093 70.0642828 -125.125 65.375 C-120.18773418 62.18029858 -115.16641347 61.70461027 -109.42163086 61.71289062 C-108.32045677 61.70264107 -108.32045677 61.70264107 -107.19703674 61.69218445 C-105.61257393 61.67865716 -104.02806821 61.66956504 -102.44355583 61.66447449 C-99.93378064 61.65614693 -97.42436262 61.63560825 -94.91468811 61.61193848 C-88.684637 61.55568364 -82.45449912 61.52033313 -76.2243042 61.48431396 C-70.95162674 61.45303587 -65.67912396 61.41382397 -60.4065876 61.36405945 C-57.93769589 61.34403671 -55.46894058 61.33568209 -52.99998474 61.32775879 C-51.48297634 61.31478383 -49.96597247 61.30126314 -48.44897461 61.28710938 C-47.76572113 61.28809128 -47.08246765 61.28907318 -46.37850952 61.29008484 C-42.49127302 61.23965227 -39.46478593 60.79786737 -36 59 C-32.98507978 55.74910214 -30.83766545 52.18675492 -28.6875 48.32421875 C-28.08679688 47.24849609 -27.48609375 46.17277344 -26.8671875 45.06445312 C-26.25101563 43.95005859 -25.63484375 42.83566406 -25 41.6875 C-24.38382813 40.58470703 -23.76765625 39.48191406 -23.1328125 38.34570312 C-19.95004173 32.62559471 -16.86713935 26.88480352 -14 21 C-13.34 21 -12.68 21 -12 21 C-11.62875 19.98486328 -11.62875 19.98486328 -11.25 18.94921875 C-9.75268465 15.41649034 -7.91367305 12.13022665 -6 8.8125 C-5.46632813 7.86987305 -5.46632813 7.86987305 -4.921875 6.90820312 C-3.44557229 4.33293627 -2.10861274 2.10861274 0 0 Z " fill="#111111" transform="translate(829,353)"/>
<path d="M0 0 C5.84037238 3.62932231 7.82936615 8.05605067 10.3125 14.3125 C10.68640869 15.2195166 11.06031738 16.1265332 11.44555664 17.06103516 C22.74548995 44.76576849 22.74548995 44.76576849 26 57 C27.67229833 54.49155251 28.55823154 52.72864864 29.5234375 49.94921875 C29.81653809 49.11938477 30.10963867 48.28955078 30.41162109 47.43457031 C30.72953613 46.52803711 31.04745117 45.62150391 31.375 44.6875 C34.60370613 35.65082511 38.01778333 26.69788002 41.56622314 17.78286743 C42.10487895 16.42895152 42.64162695 15.07427501 43.17645264 13.71884155 C43.93243763 11.80510227 44.69551266 9.89435514 45.4609375 7.984375 C45.90228027 6.87803711 46.34362305 5.77169922 46.79833984 4.63183594 C48 2 48 2 50 0 C53.265625 -0.265625 53.265625 -0.265625 57.25 -0.25 C58.55453125 -0.25515625 59.8590625 -0.2603125 61.203125 -0.265625 C64.83047536 -0.01185975 67.63032995 0.68143346 71 2 C68.88570424 8.6994367 66.36762391 15.16573579 63.6484375 21.640625 C63.02094101 23.14493073 63.02094101 23.14493073 62.38076782 24.67962646 C61.49639215 26.79811164 60.61048997 28.91596014 59.72314453 31.03320312 C58.39684222 34.19788246 57.07492544 37.36436225 55.75390625 40.53125 C55.32322342 41.56098434 54.89254059 42.59071869 54.44880676 43.6516571 C53.58039219 45.73123188 52.71556436 47.81230801 51.85429382 49.89485168 C49.80779845 54.8169973 47.70455691 59.68047824 45.38208008 64.47924805 C39.4028446 77.02640779 37.70838353 87.47975286 37.9375 101.3125 C37.9344122 103.14389161 37.92726296 104.97528095 37.91601562 106.80664062 C37.89754547 111.20581488 37.93277361 115.60133575 38 120 C35.27948714 120.90683762 33.67266994 121.12842547 30.875 121.1328125 C30.08609375 121.13410156 29.2971875 121.13539063 28.484375 121.13671875 C27.66453125 121.13285156 26.8446875 121.12898437 26 121.125 C24.77023437 121.13080078 24.77023437 121.13080078 23.515625 121.13671875 C22.33226562 121.13478516 22.33226562 121.13478516 21.125 121.1328125 C20.40570312 121.13168457 19.68640625 121.13055664 18.9453125 121.12939453 C17 121 17 121 14 120 C14.05349609 119.01757324 14.10699219 118.03514648 14.16210938 117.02294922 C15.39237532 90.76016931 10.73145443 71.34700244 -0.68798828 47.84033203 C-4.34464204 40.26825428 -7.61728087 32.52542868 -10.9291687 24.79815674 C-11.98151266 22.35541357 -13.04895099 19.91984156 -14.12133789 17.48583984 C-14.76840645 16.00749334 -15.41546125 14.52914081 -16.0625 13.05078125 C-16.3617186 12.37768417 -16.66093719 11.7045871 -16.96922302 11.01109314 C-18.21090816 8.15458804 -19 6.15241485 -19 3 C-13.35424481 -0.87137499 -6.64102925 -1.22504423 0 0 Z " fill="#141414" transform="translate(1051,617)"/>
<path d="M0 0 C3.21705667 0.30401738 4.64617092 0.62956262 6.9140625 3.00390625 C13.67612903 13.11612903 13.67612903 13.11612903 15 19 C15.16113281 19.7115625 15.32226562 20.423125 15.48828125 21.15625 C16.41691302 29.47235538 11.5111887 36.05886989 7.33496094 42.83398438 C5.0957551 46.46716546 2.9231995 50.13957931 0.75 53.8125 C0.32879883 54.52019531 -0.09240234 55.22789062 -0.52636719 55.95703125 C-3.77028057 61.46216577 -6.57223724 67.08392549 -9 73 C-9.66 73 -10.32 73 -11 73 C-11.11320856 78.08303686 -11.11320856 78.08303686 -10 83 C-9.17350731 91.52468175 -9.53071616 98.18668291 -15 105 C-20.68275362 111.4513744 -26.90741596 114.61090974 -35.5078125 115.16015625 C-43.18887013 114.85917437 -49.58251283 111.55164472 -54.890625 106.03515625 C-59.82611173 99.79392181 -61.61742055 93.8892119 -61.43359375 85.94140625 C-60.35458423 78.62163893 -56.32739967 72.72832112 -50.8125 67.9375 C-46.50020517 64.8352879 -42.52997274 64.04852129 -37.28515625 63.6796875 C-36.53105469 63.45539063 -35.77695312 63.23109375 -35 63 C-33.71532597 60.73005977 -33.71532597 60.73005977 -33 58 C-32.29967551 56.3923208 -31.59163143 54.78797687 -30.875 53.1875 C-30.52179687 52.39730469 -30.16859375 51.60710937 -29.8046875 50.79296875 C-29.53914062 50.20128906 -29.27359375 49.60960937 -29 49 C-28.34 49 -27.68 49 -27 49 C-26.75378906 48.15824219 -26.50757813 47.31648438 -26.25390625 46.44921875 C-24.85525532 42.6018394 -23.0270645 39.31504371 -20.9375 35.8125 C-18.11129079 31.08109198 -18.11129079 31.08109198 -16 26 C-15.34 26 -14.68 26 -14 26 C-13.6596875 24.78376953 -13.6596875 24.78376953 -13.3125 23.54296875 C-11.6789238 19.13328539 -9.4247749 15.32723444 -7 11.3125 C-6.32324219 10.17458008 -6.32324219 10.17458008 -5.6328125 9.01367188 C-3.8121804 5.96222783 -1.97161966 2.95742949 0 0 Z " fill="#131313" transform="translate(547,354)"/>
<path d="M0 0 C0 0.66 0 1.32 0 2 C0.70125 2.165 1.4025 2.33 2.125 2.5 C7.67827542 5.39736109 11.09714194 11.13430911 13 17 C14.08300538 25.69824323 13.10803235 32.7838908 8 40 C2.40156677 45.85290747 -4.40301681 49.17159089 -12.5 49.5 C-19.43858757 49.21818062 -24.65732306 47.03711039 -29.875 42.5 C-32 40 -32 40 -33.20417786 37.87786865 C-34.93013984 35.69910205 -34.93013984 35.69910205 -38.05619812 35.48101807 C-39.31084366 35.47213562 -40.5654892 35.46325317 -41.8581543 35.45410156 C-42.55109589 35.44376389 -43.24403748 35.43342621 -43.95797729 35.42277527 C-46.24696009 35.39329198 -48.5350608 35.39184704 -50.82421875 35.390625 C-52.41178581 35.37564695 -53.99933726 35.35892059 -55.58686829 35.34051514 C-59.7642182 35.29678664 -63.94135792 35.27683057 -68.11889648 35.26177979 C-72.38212543 35.24222834 -76.6451267 35.20025622 -80.90820312 35.16015625 C-89.27207594 35.0847947 -97.63585949 35.0345395 -106 35 C-107.08178711 32.70874023 -107.08178711 32.70874023 -108 30 C-106.98421319 27.40746949 -106.00300855 25.3968802 -104.5625 23.0625 C-104.18923584 22.44076904 -103.81597168 21.81903809 -103.43139648 21.1784668 C-99.04243912 14.1175651 -94.59122513 10.13298563 -86.61868286 7.59094238 C-81.77253852 6.49734219 -76.96479421 6.77967897 -72.02734375 6.953125 C-69.72332787 6.99591465 -67.41929025 7.03754643 -65.11523438 7.078125 C-61.51814104 7.15877621 -57.92216311 7.25048106 -54.32592773 7.36328125 C-50.83046238 7.46632056 -47.33637624 7.52506375 -43.83984375 7.578125 C-42.771931 7.62366516 -41.70401825 7.66920532 -40.60374451 7.71612549 C-34.96798486 7.77302656 -31.74032366 7.35408526 -27.43188477 3.55371094 C-26.52624535 2.61202057 -26.52624535 2.61202057 -25.60231018 1.65130615 C-19.73099513 -4.39954392 -7.1091268 -3.15961191 0 0 Z " fill="#141414" transform="translate(802,451)"/>
<path d="M0 0 C5.20304014 3.80184477 9.67797395 9.1045343 11.07421875 15.515625 C11.72303199 22.71564973 11.65820922 28.12677243 8.07421875 34.515625 C8.43299016 39.15411373 9.85581503 42.39299424 12.1796875 46.3828125 C12.82736084 47.50478027 13.47503418 48.62674805 14.14233398 49.78271484 C14.84877914 50.98536122 15.5552411 52.18799772 16.26171875 53.390625 C16.9814575 54.63310112 17.70027827 55.87610944 18.41821289 57.11962891 C21.97462058 63.26652472 25.58326727 69.38164878 29.21484375 75.484375 C29.85526611 76.56605957 30.49568848 77.64774414 31.15551758 78.76220703 C32.36761695 80.80506398 33.58844568 82.84277366 34.8190918 84.87451172 C35.36605713 85.79506348 35.91302246 86.71561523 36.4765625 87.6640625 C36.95601318 88.45989746 37.43546387 89.25573242 37.92944336 90.07568359 C39.26903969 92.93086075 39.83741306 95.37325971 40.07421875 98.515625 C36.8511489 101.73869485 33.20662174 101.58840241 28.82421875 101.703125 C21.31836817 101.59072458 15.00342779 100.36679603 9.07421875 95.515625 C4.06001213 90.24427958 1.13064595 84.16868104 -2.11328125 77.703125 C-3.2655834 75.46348052 -4.42054763 73.22520375 -5.578125 70.98828125 C-6.14515137 69.8914502 -6.71217773 68.79461914 -7.29638672 67.66455078 C-7.83408691 66.62540527 -8.37178711 65.58625977 -8.92578125 64.515625 C-9.39773926 63.59894043 -9.86969727 62.68225586 -10.35595703 61.73779297 C-11.59893566 59.35407998 -12.87893911 56.99535532 -14.17578125 54.640625 C-14.52664795 53.95250732 -14.87751465 53.26438965 -15.23901367 52.55541992 C-17.48758101 48.57546083 -19.34454075 47.04737023 -23.72265625 45.5703125 C-25.11711502 45.19348539 -26.51659671 44.83297794 -27.92578125 44.515625 C-27.92578125 43.855625 -27.92578125 43.195625 -27.92578125 42.515625 C-28.81910156 42.13857422 -28.81910156 42.13857422 -29.73046875 41.75390625 C-32.21252329 40.35388616 -33.37771545 38.99373603 -35.05078125 36.703125 C-35.54835938 36.03667969 -36.0459375 35.37023437 -36.55859375 34.68359375 C-40.47636909 28.47112142 -40.42878772 22.68346724 -39.92578125 15.515625 C-38.92578125 11.765625 -38.92578125 11.765625 -37.92578125 9.515625 C-37.26578125 9.515625 -36.60578125 9.515625 -35.92578125 9.515625 C-35.76078125 8.814375 -35.59578125 8.113125 -35.42578125 7.390625 C-32.42890503 1.64661225 -26.99250338 -1.3705105 -20.98828125 -3.421875 C-13.09722957 -5.43686832 -6.92925893 -4.20834574 0 0 Z " fill="#141414" transform="translate(696.92578125,194.484375)"/>
<path d="M0 0 C0 0.66 0 1.32 0 2 C0.5775 2.226875 1.155 2.45375 1.75 2.6875 C6.18608019 5.27521344 8.55154796 9.72923098 10.8828125 14.17578125 C11.40593018 15.16175293 11.92904785 16.14772461 12.46801758 17.16357422 C13.01482178 18.20271973 13.56162598 19.24186523 14.125 20.3125 C18.49750511 28.52796164 23.01464266 36.55903737 28.10400391 44.3527832 C31 48.81446131 31 48.81446131 31 51 C32.11375 51.144375 33.2275 51.28875 34.375 51.4375 C38 52 38 52 40 53 C40 53.66 40 54.32 40 55 C40.53625 55.20625 41.0725 55.4125 41.625 55.625 C46.95727946 58.71210916 50.65439906 62.8271657 52.5234375 68.73828125 C54.14547217 76.43629825 53.50296384 82.82762849 49.609375 89.70703125 C44.88935544 96.43191348 39.06998747 100.42294259 31 102 C23.56438371 103.01524761 16.91545911 100.96232825 10.75 96.8125 C3.25192793 89.1440172 1.72641315 82.6538812 1.76171875 72.1328125 C2.03779353 68.50310803 3.19965224 66.13103959 5 63 C4.63377079 58.63514572 2.79396901 55.67035041 0.5 52 C-0.31050579 50.68346688 -1.11889827 49.3656316 -1.92578125 48.046875 C-2.39709473 47.27794922 -2.8684082 46.50902344 -3.35400391 45.71679688 C-6.47322422 40.56837153 -9.51230625 35.37241067 -12.55615234 30.17919922 C-13.66314826 28.29152513 -14.77285435 26.40546463 -15.8828125 24.51953125 C-17.93826526 21.02239419 -19.96975538 17.51182951 -22 14 C-22.62342285 12.94490234 -23.2468457 11.88980469 -23.88916016 10.80273438 C-24.72713135 9.34577148 -24.72713135 9.34577148 -25.58203125 7.859375 C-26.07550049 7.01342773 -26.56896973 6.16748047 -27.07739258 5.29589844 C-28 3 -28 3 -27.79077148 0.7734375 C-27 -1 -27 -1 -24.765625 -2.234375 C-17.03400529 -4.3747669 -7.23237618 -3.61618809 0 0 Z " fill="#151515" transform="translate(612,461)"/>
<path d="M0 0 C5.12313694 3.91477185 8.39847365 8.74409292 10.41796875 14.84765625 C11.31772158 22.15933192 11.11822274 28.5731134 7.03515625 34.84765625 C2.508357 40.44601667 -2.59743765 44.76453184 -9.58203125 46.84765625 C-12.60245979 47.06063519 -15.56118781 47.03260585 -18.58203125 46.84765625 C-18.82953125 47.67265625 -19.07703125 48.49765625 -19.33203125 49.34765625 C-20.76907936 53.37139096 -22.6055764 57.06744649 -24.58203125 60.84765625 C-25.24203125 60.84765625 -25.90203125 60.84765625 -26.58203125 60.84765625 C-26.96488281 61.85892578 -26.96488281 61.85892578 -27.35546875 62.890625 C-28.8107193 66.39898381 -30.4915096 69.77444177 -32.20703125 73.16015625 C-32.531875 73.80533203 -32.85671875 74.45050781 -33.19140625 75.11523438 C-33.98645081 76.69363166 -34.78398759 78.27077319 -35.58203125 79.84765625 C-36.24203125 79.84765625 -36.90203125 79.84765625 -37.58203125 79.84765625 C-38.24203125 82.15765625 -38.90203125 84.46765625 -39.58203125 86.84765625 C-40.24203125 86.84765625 -40.90203125 86.84765625 -41.58203125 86.84765625 C-41.84242188 87.54761719 -42.1028125 88.24757813 -42.37109375 88.96875 C-43.69053597 92.10561748 -45.25200289 94.9654457 -46.95703125 97.91015625 C-47.54226563 98.93238281 -48.1275 99.95460938 -48.73046875 101.0078125 C-50.46667886 103.67073391 -52.24892248 105.70469071 -54.58203125 107.84765625 C-60.75150801 105.31590553 -63.88594075 98.87032355 -66.45703125 92.97265625 C-68.55086188 86.7285542 -68.67130981 79.75112582 -66.08203125 73.66015625 C-65.58703125 72.73203125 -65.09203125 71.80390625 -64.58203125 70.84765625 C-63.92203125 70.84765625 -63.26203125 70.84765625 -62.58203125 70.84765625 C-62.35386719 70.18507813 -62.12570312 69.5225 -61.890625 68.83984375 C-59.86864986 64.2164618 -57.04544311 60.1301013 -54.30273438 55.90625 C-51.59464187 51.66854936 -49.43288764 47.52671893 -47.58203125 42.84765625 C-46.92203125 42.84765625 -46.26203125 42.84765625 -45.58203125 42.84765625 C-44.59203125 39.87765625 -43.60203125 36.90765625 -42.58203125 33.84765625 C-41.92203125 33.84765625 -41.26203125 33.84765625 -40.58203125 33.84765625 C-40.64003906 32.58050781 -40.69804688 31.31335938 -40.7578125 30.0078125 C-41.33960099 12.19164513 -41.33960099 12.19164513 -35.58203125 5.84765625 C-25.34658041 -4.91461926 -13.2414058 -8.08241653 0 0 Z " fill="#131313" transform="translate(825.58203125,293.15234375)"/>
<path d="M0 0 C8.09920536 3.38508162 12.49376527 9.50098859 16.0703125 17.23046875 C21.88101369 34.54049877 21.74274093 58.31131225 13.57421875 74.89453125 C9.6997692 81.09164822 5.27032212 85.32223336 -2 87 C-9.80972531 87.82742443 -15.64228956 86.17263617 -22.1875 81.9375 C-29.43347595 75.42204479 -32.18365936 64.31465597 -33 55 C-33.16039339 51.20729157 -33.18501587 47.42074495 -33.1875 43.625 C-33.19974609 42.64789062 -33.21199219 41.67078125 -33.22460938 40.6640625 C-33.24744785 29.21437209 -31.49426888 16.11465134 -24 7 C-16.12658918 0.33186281 -10.46934097 -1.1945642 0 0 Z " fill="#F9F9F9" transform="translate(662,634)"/>
<path d="M0 0 C7.03284492 4.39435437 7.03284492 4.39435437 8.98597717 7.67184448 C10.63297417 9.85558877 10.63297417 9.85558877 13.53977966 10.04568481 C14.67577103 10.03076996 15.81176239 10.0158551 16.98217773 10.00048828 C18.27038925 9.99373077 19.55860077 9.98697327 20.885849 9.98001099 C22.29369328 9.95293822 23.70153523 9.92574411 25.109375 9.8984375 C26.55280459 9.88589381 27.99625347 9.87541457 29.43971252 9.86691284 C33.24101278 9.84030102 37.0416709 9.79144301 40.84265137 9.73620605 C46.9228233 9.64999632 53.00316396 9.59047081 59.0837574 9.5441246 C61.2066721 9.52370398 63.3290572 9.48959868 65.45176697 9.45413208 C66.74313065 9.44107025 68.03449432 9.42800842 69.36499023 9.41455078 C71.07017067 9.38979172 71.07017067 9.38979172 72.80979919 9.36453247 C75.68548415 9.57427418 77.31117044 10.0782539 79.73828125 11.578125 C80.30389271 17.23423963 78.45219403 20.80454628 75.73828125 25.578125 C75.07828125 25.578125 74.41828125 25.578125 73.73828125 25.578125 C73.48304688 26.16335938 73.2278125 26.74859375 72.96484375 27.3515625 C71.61207417 29.80722703 70.18908863 31.32580119 68.11328125 33.203125 C67.48164062 33.79351562 66.85 34.38390625 66.19921875 34.9921875 C59.692314 39.18552612 52.33885931 38.80308558 44.89453125 38.5546875 C43.37998352 38.51714859 43.37998352 38.51714859 41.83483887 38.47885132 C38.63561581 38.39721319 35.43706293 38.30040803 32.23828125 38.203125 C30.05862041 38.14482798 27.87893271 38.08752601 25.69921875 38.03125 C20.37854145 37.89171886 15.05833051 37.73976011 9.73828125 37.578125 C9.44332764 38.20444824 9.14837402 38.83077148 8.84448242 39.47607422 C6.3307299 44.25281427 1.16061523 47.00919141 -3.69921875 48.953125 C-12.50773781 50.49847922 -18.73594239 49.79664087 -26.26171875 44.578125 C-32.12349682 39.25457363 -35.54908786 34.4908636 -36.703125 26.53515625 C-37.03965512 17.7962289 -35.14154027 12.12197008 -29.26171875 5.578125 C-20.92859905 -1.40516705 -10.44813896 -4.55463782 0 0 Z " fill="#141414" transform="translate(544.26171875,257.421875)"/>
<path d="M0 0 C26.57142857 0 26.57142857 0 35.8125 5.75 C44.72612888 14.91830399 45.49308189 28.81752682 45.375 40.875 C45.38660156 42.05191406 45.39820313 43.22882812 45.41015625 44.44140625 C45.37335184 55.59314103 44.31674184 69.11321073 36.3984375 77.74609375 C26.33168999 86.99242351 12.91196526 85 0 85 C0 56.95 0 28.9 0 0 Z " fill="#F8F8F8" transform="translate(467,635)"/>
<path d="M0 0 C0.71607422 -0.00386719 1.43214844 -0.00773438 2.16992188 -0.01171875 C5.70816511 -0.00516038 8.60419009 0.26042252 12.0625 1.125 C12.0625 40.395 12.0625 79.665 12.0625 120.125 C7.94033729 121.15554068 4.20639741 121.27271682 0 121.25 C-0.71994141 121.25386719 -1.43988281 121.25773438 -2.18164062 121.26171875 C-5.36458639 121.25580799 -7.89697862 121.13850713 -10.9375 120.125 C-10.9375 80.855 -10.9375 41.585 -10.9375 1.125 C-7.25089303 -0.10386899 -3.83687025 -0.02060987 0 0 Z " fill="#121212" transform="translate(569.9375,616.875)"/>
<path d="M0 0 C3.320625 -0.061875 6.64125 -0.12375 10.0625 -0.1875 C11.09511963 -0.21481201 12.12773926 -0.24212402 13.19165039 -0.27026367 C20.4840339 -0.33568199 25.27709184 0.57306012 30.875 5.5625 C34.34608446 9.54403806 34.21351223 12.65995666 34.25 17.75 C34.270625 18.45382812 34.29125 19.15765625 34.3125 19.8828125 C34.35619101 25.75925289 33.0087847 29.87305149 28.875 34.25 C19.98609433 39.66063823 10.23412011 38 0 38 C0 25.46 0 12.92 0 0 Z " fill="#FAFAFA" transform="translate(967,635)"/>
<path d="M0 0 C4.35344121 2.40828663 6.27694416 5.37495538 8 10 C8.25596456 13.77547723 8.19614941 16.41155176 7 20 C6.34 20 5.68 20 5 20 C4.731875 20.61875 4.46375 21.2375 4.1875 21.875 C3 24 3 24 0 26 C-5.00549194 26.6663658 -9.51422288 26.80479594 -14 24.375 C-17.21958695 20.55174049 -18.81350798 17.49193615 -19.4375 12.5 C-18.79650912 7.37207299 -16.7036655 4.50323426 -12.875 1.125 C-8.56584224 -0.56119217 -4.563325 -0.66908719 0 0 Z " fill="#F7F7F7" transform="translate(688,203)"/>
<path d="M0 0 C3.39819184 1.66456145 5.43980557 4.05785482 7.375 7.3125 C8.33510054 11.44093233 8.94319986 16.11360028 7 20 C6.34 20 5.68 20 5 20 C4.7525 20.61875 4.505 21.2375 4.25 21.875 C2.73431277 24.45166829 1.74680969 24.90320033 -1 26 C-5.70307153 26.65766529 -9.70776667 26.68735815 -13.9375 24.4375 C-17.15022482 20.6406434 -18.59667344 16.89563484 -19.625 12.0625 C-18.64999561 7.28497847 -15.47700479 4.29607468 -12 1 C-8.26836358 -0.86581821 -4.06325499 -0.55464677 0 0 Z " fill="#F6F6F6" transform="translate(517,430)"/>
<path d="M0 0 C3.63388212 1.36735033 6.38674281 3.28783036 8.9375 6.25 C10.348205 9.90123647 10.68263302 13.17425453 10 17 C7.34670901 22.0223008 4.68885495 25.14445524 -0.75 26.875 C-5.05998378 27.04076861 -8.23635213 26.07843241 -12 24 C-15.54941343 20.63260777 -16.80467588 17.88310292 -17 13 C-16.30605729 8.60502953 -15.36510861 5.97999434 -12 3.125 C-7.61551685 0.01932444 -5.42440044 -0.44462299 0 0 Z " fill="#F9F9F9" transform="translate(793,461)"/>
<path d="M0 0 C4.00164732 1.46864582 6.44937733 3.26010078 9 6.6875 C10.50001217 11.65629033 10.42345911 16.12253545 8.08984375 20.83984375 C5.43010377 24.52741545 2.45550255 26.14234074 -1.87890625 26.9453125 C-6.91337309 27.07511459 -10.6678714 25.12718574 -14.4375 21.9375 C-16.66458897 17.75057274 -16.81806544 13.68481497 -17 9 C-16.34 9 -15.68 9 -15 9 C-14.79375 8.2575 -14.5875 7.515 -14.375 6.75 C-11.36173263 0.72346526 -6.41710833 -0.90064678 0 0 Z " fill="#F9F9F9" transform="translate(814,301)"/>
<path d="M0 0 C5.0223008 2.65329099 8.14445524 5.31114505 9.875 10.75 C10.04076861 15.05998378 9.07843241 18.23635213 7 22 C4.47321373 24.66336931 2.65408076 25.78197308 -0.8125 26.9375 C-5.05725783 27.02073055 -8.30065214 26.07447439 -12 24 C-15.20768823 20.62781494 -16.92335204 18.35411401 -17.1875 13.6875 C-16.96905883 9.39149033 -16.69366737 6.70305057 -13.58984375 3.58203125 C-9.02642333 -0.12899629 -5.80832818 -0.82976117 0 0 Z " fill="#F9F9F9" transform="translate(537,268)"/>
<path d="M0 0 C5.05215523 2.66906314 8.16941171 5.33025194 9.875 10.8125 C10.0758116 15.93319579 8.26059105 19.54841031 4.9375 23.375 C1.44813431 26.30156477 -1.25154269 26.33820363 -5.6796875 26.28125 C-10.31881459 25.71893157 -13.02806478 23.19872011 -15.875 19.6875 C-17.6629971 15.4161736 -17.44804516 11.75144925 -16.3125 7.3125 C-12.68173373 0.91543563 -6.99476611 -0.95087137 0 0 Z " fill="#F9F9F9" transform="translate(643,524)"/>
<path d="M0 0 C3.31301121 1.72021736 5.41950434 3.0913981 7.4375 6.25 C8.2117136 10.03504427 8.2361513 13.35041044 7 17 C4.33085861 20.20296967 2.81513732 21.61081414 -1.22265625 22.4765625 C-5.66912046 22.75864203 -7.45353525 22.44400261 -11 19.5625 C-11.66 18.716875 -12.32 17.87125 -13 17 C-13.33 16.67 -13.66 16.34 -14 16 C-15.2188175 7.66884242 -15.2188175 7.66884242 -12.73046875 4.26171875 C-8.48098134 0.75666709 -5.45332891 -0.52435855 0 0 Z " fill="#F7F7F7" transform="translate(625,787)"/>
<path d="M0 0 C2.70567626 1.82339052 4.53728718 3.07457436 6 6 C6.55112923 10.59876684 6.61753151 13.97787887 4.1875 18 C0.56958301 21.30780982 -3.07219812 21.41625541 -7.7734375 21.33203125 C-10 21 -10 21 -13 19.0625 C-15.60897102 15.06751312 -16.70922668 11.77709003 -16 7 C-12.0907308 0.05878934 -7.79985055 -1.74824236 0 0 Z " fill="#F8F8F8" transform="translate(422,788)"/>
<path d="M0 0 C7.23470831 0 10.23412723 0.37969948 15.375 5.25 C17.51284404 8.86788991 17.6543438 10.85582258 17 15 C15.20104326 17.96728289 13.15299143 20.42350428 10 22 C6.7 22 3.4 22 0 22 C0 14.74 0 7.48 0 0 Z " fill="#EEEEEE" transform="translate(689,787)"/>
<path d="M0 0 C3.1933343 0.05150539 5.60691055 0.12302844 8.1875 2.1875 C9.33072304 4.73776677 9.213641 6.06550868 8.625 8.8125 C8.480625 9.59625 8.33625 10.38 8.1875 11.1875 C8.8475 11.8475 9.5075 12.5075 10.1875 13.1875 C10.5625 16.125 10.5625 16.125 10.1875 19.1875 C7.92542303 21.47081713 6.6081281 22.14343979 3.390625 22.48046875 C2.41609375 22.44566406 1.4415625 22.41085937 0.4375 22.375 C-1.03976562 22.33439453 -1.03976562 22.33439453 -2.546875 22.29296875 C-3.29453125 22.25816406 -4.0421875 22.22335937 -4.8125 22.1875 C-4.84137814 18.70835059 -4.85925687 15.22923169 -4.875 11.75 C-4.88337891 10.75677734 -4.89175781 9.76355469 -4.90039062 8.74023438 C-4.90361328 7.79599609 -4.90683594 6.85175781 -4.91015625 5.87890625 C-4.91539307 5.00435791 -4.92062988 4.12980957 -4.92602539 3.22875977 C-4.72193668 -0.44088691 -3.85388467 0.18953531 0 0 Z " fill="#444444" transform="translate(513.8125,786.8125)"/>
<path d="M0 0 C0.99 0 1.98 0 3 0 C4.17133058 2.45620851 5.33721722 4.91474917 6.5 7.375 C7.00080078 8.42300781 7.00080078 8.42300781 7.51171875 9.4921875 C10 14.7734375 10 14.7734375 10 17 C10.99 17 11.98 17 13 17 C13.25523437 16.14728516 13.25523437 16.14728516 13.515625 15.27734375 C15.15067737 10.0677886 17.13309172 5.64636859 20 1 C20.99 1 21.98 1 23 1 C23 7.93 23 14.86 23 22 C22.01 22 21.02 22 20 22 C20 17.38 20 12.76 20 8 C19.34 8 18.68 8 18 8 C17.87625 8.9590625 17.87625 8.9590625 17.75 9.9375 C16.70479628 14.20541517 14.85908174 18.03107667 13 22 C11.171875 21.84765625 11.171875 21.84765625 9 21 C6.91661733 17.48566239 5.56709161 13.78713807 4 10 C3.67 13.96 3.34 17.92 3 22 C2.01 22 1.02 22 0 22 C0 14.74 0 7.48 0 0 Z " fill="#363636" transform="translate(897,787)"/>
<path d="M0 0 C0.99 0 1.98 0 3 0 C5.97 6.6 8.94 13.2 12 20 C11.01 20.33 10.02 20.66 9 21 C8.34 19.68 7.68 18.36 7 17 C5.23050905 16.89184775 3.45912513 16.81433917 1.6875 16.75 C0.20830078 16.68039062 0.20830078 16.68039062 -1.30078125 16.609375 C-4.14403694 16.73096572 -4.14403694 16.73096572 -5.85546875 19.015625 C-6.23316406 19.67046875 -6.61085938 20.3253125 -7 21 C-7.66 20.67 -8.32 20.34 -9 20 C-8.4121875 18.63875 -8.4121875 18.63875 -7.8125 17.25 C-5.84802436 12.68188918 -3.97002144 8.07829479 -2.0859375 3.4765625 C-1 1 -1 1 0 0 Z " fill="#202020" transform="translate(947,788)"/>
<path d="M0 0 C0.66 0 1.32 0 2 0 C2 7.26 2 14.52 2 22 C1.01 22 0.02 22 -1 22 C-2.3503418 20.62304688 -2.3503418 20.62304688 -3.69921875 18.71875 C-4.18583984 18.04199219 -4.67246094 17.36523438 -5.17382812 16.66796875 C-5.67333984 15.95253906 -6.17285156 15.23710938 -6.6875 14.5 C-7.45416992 13.42685547 -7.45416992 13.42685547 -8.23632812 12.33203125 C-9.49970329 10.56094458 -10.75100138 8.7812544 -12 7 C-12.33 11.95 -12.66 16.9 -13 22 C-13.99 22 -14.98 22 -16 22 C-16 15.07 -16 8.14 -16 1 C-11.05459381 2.23635155 -9.59228369 4.64196624 -6.75 8.5625 C-6.29109375 9.17802734 -5.8321875 9.79355469 -5.359375 10.42773438 C-4.23028585 11.94494792 -3.11388857 13.47159183 -2 15 C-1.93941406 14.00097656 -1.87882812 13.00195312 -1.81640625 11.97265625 C-1.73261719 10.68230469 -1.64882813 9.39195312 -1.5625 8.0625 C-1.48128906 6.77472656 -1.40007812 5.48695313 -1.31640625 4.16015625 C-1 1 -1 1 0 0 Z " fill="#353535" transform="translate(463,787)"/>
<path d="M0 0 C2.70567626 1.82339052 4.53728718 3.07457436 6 6 C6.55112923 10.59876684 6.61753151 13.97787887 4.1875 18 C0.56958301 21.30780982 -3.07219812 21.41625541 -7.7734375 21.33203125 C-10 21 -10 21 -13 19.0625 C-15.60897102 15.06751312 -16.70922668 11.77709003 -16 7 C-12.0907308 0.05878934 -7.79985055 -1.74824236 0 0 Z M-10.3125 3.5625 C-12.59948073 6.86591661 -13.06932688 8.97904121 -13 13 C-11.69370687 15.91259616 -10.57740022 16.85216648 -8 19 C-4.03410522 19.1391542 -1.89265286 18.57221337 1.4375 16.4375 C3.3568977 13.44323959 3.63932585 11.41995368 3.44921875 7.90625 C3.08596692 5.71643487 3.08596692 5.71643487 0.875 3.5 C-3.35698898 1.29200575 -6.25559364 0.82134706 -10.3125 3.5625 Z " fill="#2D2D2D" transform="translate(422,788)"/>
<path d="M0 0 C3.31301121 1.72021736 5.41950434 3.0913981 7.4375 6.25 C8.2117136 10.03504427 8.2361513 13.35041044 7 17 C4.33085861 20.20296967 2.81513732 21.61081414 -1.22265625 22.4765625 C-5.66912046 22.75864203 -7.45353525 22.44400261 -11 19.5625 C-11.66 18.716875 -12.32 17.87125 -13 17 C-13.33 16.67 -13.66 16.34 -14 16 C-15.2188175 7.66884242 -15.2188175 7.66884242 -12.73046875 4.26171875 C-8.48098134 0.75666709 -5.45332891 -0.52435855 0 0 Z M-9.375 4.6875 C-11.20829306 7.29641704 -11.8448278 8.81896986 -12 12 C-11.20817165 15.32567907 -10.38570366 16.67858028 -7.75 18.875 C-4.30998383 20.28227934 -2.53068164 20.07455528 1 19 C3.2142347 17.70200035 3.80293572 16.6180043 4.57421875 14.19921875 C5.02234232 12.01615805 5.20738636 10.22076227 5 8 C3.16666667 4.83333333 3.16666667 4.83333333 0 3 C-4.03211364 2.36335048 -6.01737304 2.30181769 -9.375 4.6875 Z " fill="#2F2F2F" transform="translate(625,787)"/>
<path d="M0 0 C0.99 0.66 1.98 1.32 3 2 C3 2.66 3 3.32 3 4 C1.96939453 3.94779297 1.96939453 3.94779297 0.91796875 3.89453125 C0.01691406 3.86746094 -0.88414062 3.84039063 -1.8125 3.8125 C-2.70582031 3.77769531 -3.59914063 3.74289062 -4.51953125 3.70703125 C-7.02358313 3.80493088 -7.02358313 3.80493088 -8.80859375 5.26171875 C-10.24916077 7.36352964 -10.34564874 8.47487317 -10.25 11 C-10.23453125 11.680625 -10.2190625 12.36125 -10.203125 13.0625 C-10.04772119 15.21614892 -10.04772119 15.21614892 -9 18 C-3.73077692 19.00551806 -3.73077692 19.00551806 1.4375 18.25 C3.30609329 16.98713894 3.30609329 16.98713894 4 14 C2.02 14 0.04 14 -2 14 C-2 13.01 -2 12.02 -2 11 C0.97 11 3.94 11 7 11 C6.73991338 14.72790821 6.15299098 16.78007546 4 19.875 C0.45459186 22.38633076 -1.58499974 22.72713335 -5.84375 22.5 C-9.29371778 21.70000747 -10.90927996 19.74407005 -13 17 C-14.60306924 13.79386153 -14.48740461 10.47860003 -14 7 C-10.4280254 1.13175602 -6.77426302 -0.57653302 0 0 Z " fill="#2B2B2B" transform="translate(991,787)"/>
<path d="M0 0 C0.66 0 1.32 0 2 0 C2 7.26 2 14.52 2 22 C1.01 22 0.02 22 -1 22 C-1 19.03 -1 16.06 -1 13 C-4.63 13 -8.26 13 -12 13 C-12 15.97 -12 18.94 -12 22 C-12.66 22 -13.32 22 -14 22 C-14 15.07 -14 8.14 -14 1 C-13.34 1 -12.68 1 -12 1 C-12 3.97 -12 6.94 -12 10 C-8.37 10 -4.74 10 -1 10 C-1.020625 8.535625 -1.04125 7.07125 -1.0625 5.5625 C-1.08392007 4.04167482 -1.07179964 2.51928038 -1 1 C-0.67 0.67 -0.34 0.34 0 0 Z " fill="#303030" transform="translate(797,787)"/>
<path d="M0 0 C0.66 0 1.32 0 2 0 C3.55078125 1.72265625 3.55078125 1.72265625 5.3125 4.0625 C5.92867187 4.8771875 6.54484375 5.691875 7.1796875 6.53125 C9.48931101 9.66361493 11.76363316 12.81487147 14 16 C14.33 11.05 14.66 6.1 15 1 C15.66 1 16.32 1 17 1 C17 7.93 17 14.86 17 22 C12.59879886 19.79939943 10.57571502 17.21928671 7.75 13.375 C7.29109375 12.76398437 6.8321875 12.15296875 6.359375 11.5234375 C5.23248748 10.0209208 4.11527563 8.51115591 3 7 C2.67 11.95 2.34 16.9 2 22 C1.34 22 0.68 22 0 22 C0 14.74 0 7.48 0 0 Z " fill="#1D1D1D" transform="translate(652,787)"/>
<path d="M0 0 C7.23470831 0 10.23412723 0.37969948 15.375 5.25 C17.51284404 8.86788991 17.6543438 10.85582258 17 15 C15.20104326 17.96728289 13.15299143 20.42350428 10 22 C6.7 22 3.4 22 0 22 C0 14.74 0 7.48 0 0 Z M2 3 C2 8.61 2 14.22 2 20 C8.51068031 20.53057335 8.51068031 20.53057335 11.9375 18.5 C14.45814631 15.44467114 14.63460776 13.76303336 14.33984375 9.90234375 C13.82064849 6.99604383 13.3933503 5.81314417 11 4 C7.96535048 3.37047164 5.11284089 3.18045454 2 3 Z " fill="#202020" transform="translate(689,787)"/>
<path d="M0 0 C1.65322266 0.01740234 1.65322266 0.01740234 3.33984375 0.03515625 C4.99693359 0.04869141 4.99693359 0.04869141 6.6875 0.0625 C7.54214844 0.07410156 8.39679687 0.08570313 9.27734375 0.09765625 C9.27734375 1.08765625 9.27734375 2.07765625 9.27734375 3.09765625 C5.97734375 3.09765625 2.67734375 3.09765625 -0.72265625 3.09765625 C-0.72265625 5.40765625 -0.72265625 7.71765625 -0.72265625 10.09765625 C1.58734375 10.09765625 3.89734375 10.09765625 6.27734375 10.09765625 C6.27734375 10.75765625 6.27734375 11.41765625 6.27734375 12.09765625 C3.96734375 12.09765625 1.65734375 12.09765625 -0.72265625 12.09765625 C-0.72265625 14.73765625 -0.72265625 17.37765625 -0.72265625 20.09765625 C2.57734375 20.09765625 5.87734375 20.09765625 9.27734375 20.09765625 C9.27734375 20.75765625 9.27734375 21.41765625 9.27734375 22.09765625 C4.98734375 22.09765625 0.69734375 22.09765625 -3.72265625 22.09765625 C-3.74948826 18.6184389 -3.76941295 15.13942586 -3.78515625 11.66015625 C-3.79353516 10.66693359 -3.80191406 9.67371094 -3.81054688 8.65039062 C-3.81376953 7.70615234 -3.81699219 6.76191406 -3.8203125 5.7890625 C-3.82554932 4.91451416 -3.83078613 4.03996582 -3.83618164 3.13891602 C-3.6599308 -0.03018786 -3.20527528 0.11496683 0 0 Z " fill="#464646" transform="translate(821.72265625,786.90234375)"/>
<path d="M0 0 C0 0.66 0 1.32 0 2 C0.99 2.33 1.98 2.66 3 3 C3 3.66 3 4.32 3 5 C0.03 4.67 -2.94 4.34 -6 4 C-6 5.32 -6 6.64 -6 8 C-5.36191406 8.34933594 -4.72382813 8.69867187 -4.06640625 9.05859375 C-3.24011719 9.51363281 -2.41382813 9.96867188 -1.5625 10.4375 C-0.73878906 10.88996094 0.08492188 11.34242188 0.93359375 11.80859375 C3 13 3 13 4 14 C4.28918735 16.74727982 4.39056296 18.39245761 2.875 20.75 C0.20461711 22.53025526 -1.80039696 22.87201588 -5 23 C-7.875 21.75 -7.875 21.75 -10 20 C-10 19.01 -10 18.02 -10 17 C-9.29875 17.33 -8.5975 17.66 -7.875 18 C-4.73996884 19.09044562 -2.29436818 19.15322643 1 19 C0.8472241 16.58401821 0.8472241 16.58401821 0 14 C-2.01287361 12.3622323 -2.01287361 12.3622323 -4.5 11.25 C-9 9 -9 9 -10 8 C-10.3125 5.625 -10.3125 5.625 -10 3 C-7.00198322 -0.3439418 -4.3216814 -0.2946601 0 0 Z " fill="#222222" transform="translate(362,787)"/>
<path d="M0 0 C3.96 0 7.92 0 12 0 C12.33 0.99 12.66 1.98 13 3 C9.7 3 6.4 3 3 3 C3 5.31 3 7.62 3 10 C5.31 10 7.62 10 10 10 C10 10.66 10 11.32 10 12 C7.36 12 4.72 12 2 12 C2 14.64 2 17.28 2 20 C5.63 20 9.26 20 13 20 C13 20.66 13 21.32 13 22 C8.71 22 4.42 22 0 22 C0 14.74 0 7.48 0 0 Z " fill="#2B2B2B" transform="translate(543,787)"/>
<path d="M0 0 C2.64 0 5.28 0 8 0 C8 0.33 8 0.66 8 1 C6.35 1 4.7 1 3 1 C3 3.31 3 5.62 3 8 C5.31 8 7.62 8 10 8 C9.67 8.66 9.34 9.32 9 10 C7.02 10 5.04 10 3 10 C3 12.97 3 15.94 3 19 C8.54828245 18.25184487 8.54828245 18.25184487 12.5 14.875 C12.665 14.25625 12.83 13.6375 13 13 C13.66 13 14.32 13 15 13 C15.25 15.3125 15.25 15.3125 15 18 C12.73476214 20.26523786 11.41195331 20.95684847 8.203125 21.29296875 C5.46875 21.1953125 2.734375 21.09765625 0 21 C0 14.07 0 7.14 0 0 Z " fill="#2B2B2B" transform="translate(509,788)"/>
<path d="M0 0 C3.96 0 7.92 0 12 0 C12 0.99 12 1.98 12 3 C8.7 3 5.4 3 2 3 C2 5.31 2 7.62 2 10 C4.64 10 7.28 10 10 10 C10 10.66 10 11.32 10 12 C7.36 12 4.72 12 2 12 C2 14.64 2 17.28 2 20 C5.3 20 8.6 20 12 20 C12 20.66 12 21.32 12 22 C8.04 22 4.08 22 0 22 C0 14.74 0 7.48 0 0 Z " fill="#232323" transform="translate(1017,787)"/>
<path d="M0 0 C0.99 0 1.98 0 3 0 C4.0044134 2.2898234 5.00367612 4.5816599 6 6.875 C6.28617187 7.52597656 6.57234375 8.17695312 6.8671875 8.84765625 C9 13.7734375 9 13.7734375 9 16 C12.2107419 13.32920269 13.50977252 10.07806613 15.1875 6.3125 C15.71730469 5.13300781 16.24710937 3.95351563 16.79296875 2.73828125 C17.19128906 1.83464844 17.58960938 0.93101562 18 0 C18.66 0 19.32 0 20 0 C18.50965013 5.44347648 17.05819022 10.21326748 14 15 C13.28856912 16.98451771 12.61008664 18.98202112 12 21 C10.13378906 20.74780273 10.13378906 20.74780273 8 20 C6.81152344 18.26586914 6.81152344 18.26586914 5.859375 16.03515625 C5.51132812 15.23529297 5.16328125 14.43542969 4.8046875 13.61132812 C4.45664062 12.77021484 4.10859375 11.92910156 3.75 11.0625 C3.20472656 9.80663086 3.20472656 9.80663086 2.6484375 8.52539062 C0 2.33740602 0 2.33740602 0 0 Z " fill="#272727" transform="translate(291,788)"/>
<path d="M0 0 C4.62 0 9.24 0 14 0 C14 0.99 14 1.98 14 3 C12.02 3 10.04 3 8 3 C8 9.27 8 15.54 8 22 C7.01 22 6.02 22 5 22 C5 15.73 5 9.46 5 3 C3.02 3 1.04 3 -1 3 C-0.67 2.01 -0.34 1.02 0 0 Z " fill="#404040" transform="translate(750,787)"/>
<path d="M0 0 C0.99 0 1.98 0 3 0 C4.60546875 1.75 4.60546875 1.75 6.1875 4 C6.71730469 4.7425 7.24710938 5.485 7.79296875 6.25 C8.19128906 6.8275 8.58960938 7.405 9 8 C11.64752004 5.42215154 13.94432065 3.08351902 16 0 C16.66 0 17.32 0 18 0 C16.9476336 2.98170479 15.90694047 5.1184394 13.9375 7.625 C11.25516333 12.29745742 11.18886206 16.69297613 11 22 C10.01 22 9.02 22 8 22 C8.00902344 21.39414062 8.01804687 20.78828125 8.02734375 20.1640625 C7.78373504 13.27946846 5.72773609 9.41233242 1.49609375 4.03125 C0 2 0 2 0 0 Z " fill="#353535" transform="translate(574,787)"/>
<path d="M0 0 C5.27405053 0.41365102 8.17729898 1.28973136 12 5 C13.73145686 8.46291372 13.47737349 12.21370892 13 16 C11.1925313 19.09851777 10.13239188 20.59108071 6.75 21.8125 C6.1725 21.874375 5.595 21.93625 5 22 C4.67 21.01 4.34 20.02 4 19 C4.639375 18.896875 5.27875 18.79375 5.9375 18.6875 C6.9584375 18.3471875 6.9584375 18.3471875 8 18 C9.24775412 14.25673765 9.59785372 10.91471342 9 7 C7.07614556 4.93872739 5.32580152 4.15824645 2.8125 2.9375 C1 2 1 2 0 0 Z " fill="#313131" transform="translate(415,787)"/>
<path d="M0 0 C2.64 0 5.28 0 8 0 C8.66 1.32 9.32 2.64 10 4 C8.375 6 8.375 6 6 8 C2.75 8.25 2.75 8.25 0 8 C0 5.36 0 2.72 0 0 Z " fill="#F5F5F5" transform="translate(512,799)"/>
<path d="M0 0 C0.33 0 0.66 0 1 0 C1.01417969 0.68707031 1.02835938 1.37414062 1.04296875 2.08203125 C1.16700238 7.69800294 1.16700238 7.69800294 4.1875 12.125 C7.28040626 13.0872375 9.77910288 13.22471375 13 13 C12.67 13.99 12.34 14.98 12 16 C4.74132492 16.61514196 4.74132492 16.61514196 1.0625 13.5625 C0.381875 12.716875 -0.29875 11.87125 -1 11 C-1.33 10.67 -1.66 10.34 -2 10 C-2.27314815 4.26388889 -2.27314815 4.26388889 -2 2 C-1.34 1.34 -0.68 0.68 0 0 Z " fill="#282828" transform="translate(613,793)"/>
<path d="M0 0 C0.99 0 1.98 0 3 0 C3.99 2.64 4.98 5.28 6 8 C5.01 8 4.02 8 3 8 C2.67 12.62 2.34 17.24 2 22 C1.34 22 0.68 22 0 22 C0 14.74 0 7.48 0 0 Z " fill="#1A1A1A" transform="translate(897,787)"/>
<path d="M0 0 C2.97 0 5.94 0 9 0 C9 0.66 9 1.32 9 2 C6.69 2 4.38 2 2 2 C2 4.64 2 7.28 2 10 C5.3 10 8.6 10 12 10 C12 10.66 12 11.32 12 12 C8.04 12 4.08 12 0 12 C0 8.04 0 4.08 0 0 Z " fill="#191919" transform="translate(819,797)"/>
<path d="M0 0 C2.22825644 2.22825644 2.69239369 3.65761628 3.625 6.625 C3.88539063 7.44226563 4.14578125 8.25953125 4.4140625 9.1015625 C4.60742188 9.72804688 4.80078125 10.35453125 5 11 C2.03 11 -0.94 11 -4 11 C-3.39301257 6.87248551 -1.96189209 3.6678852 0 0 Z " fill="#E2E2E2" transform="translate(948,791)"/>
<path d="M0 0 C2.31 0 4.62 0 7 0 C7.38218767 1.65614657 7.71395102 3.32457024 8 5 C7 6 7 6 3.4375 6.0625 C2.303125 6.041875 1.16875 6.02125 0 6 C0 4.02 0 2.04 0 0 Z " fill="#FAFAFA" transform="translate(512,790)"/>
<path d="M0 0 C-0.598125 0.433125 -1.19625 0.86625 -1.8125 1.3125 C-5.61945619 4.24929478 -7.38365115 6.3996225 -9 11 C-9.66 11 -10.32 11 -11 11 C-11.46707789 6.98313013 -11.32150834 5.43498188 -8.875 2.125 C-5.56501812 -0.32150834 -4.01686987 -0.46707789 0 0 Z " fill="#222222" transform="translate(418,788)"/>
<path d="M0 0 C0.66 0 1.32 0 2 0 C0.34608232 6.22725067 -1.55759004 11.53962558 -5 17 C-5.66 17 -6.32 17 -7 17 C-5.1668733 11.00067626 -2.92678249 5.55079437 0 0 Z " fill="#151515" transform="translate(309,788)"/>
<path d="M0 0 C0 0.66 0 1.32 0 2 C0.99 2.33 1.98 2.66 3 3 C3 3.66 3 4.32 3 5 C2.31292969 4.91621094 1.62585938 4.83242188 0.91796875 4.74609375 C0.01691406 4.64425781 -0.88414062 4.54242187 -1.8125 4.4375 C-2.70582031 4.33308594 -3.59914063 4.22867188 -4.51953125 4.12109375 C-7.13375572 3.84341291 -7.13375572 3.84341291 -10 5 C-7.62417533 -0.26075462 -5.61350876 -0.1220328 0 0 Z " fill="#434343" transform="translate(362,787)"/>
<path d="M0 0 C0.99 0.33 1.98 0.66 3 1 C3 1.66 3 2.32 3 3 C4.32 3.33 5.64 3.66 7 4 C6.67 5.32 6.34 6.64 6 8 C4.125 7.75 4.125 7.75 2 7 C0.27898465 4.41847698 0 3.15081975 0 0 Z " fill="#303030" transform="translate(297,801)"/>
<path d="M0 0 C0.99 0.66 1.98 1.32 3 2 C3 2.66 3 3.32 3 4 C-0.96 4 -4.92 4 -9 4 C-8.67 3.01 -8.34 2.02 -8 1 C-5.22899606 -0.38550197 -3.0665294 -0.1877467 0 0 Z " fill="#262626" transform="translate(991,787)"/>
<path d="M0 0 C2.97 0 5.94 0 9 0 C8.67 1.32 8.34 2.64 8 4 C5.36 3.67 2.72 3.34 0 3 C0 2.01 0 1.02 0 0 Z " fill="#474747" transform="translate(989,798)"/>
<path d="M0 0 C0.33 0 0.66 0 1 0 C1.061875 0.763125 1.12375 1.52625 1.1875 2.3125 C1.76935262 5.23051809 1.76935262 5.23051809 4.5625 6.8125 C5.366875 7.204375 6.17125 7.59625 7 8 C6.01 8.33 5.02 8.66 4 9 C0.8125 7.0625 0.8125 7.0625 -2 5 C-1.125 1.125 -1.125 1.125 0 0 Z " fill="#171717" transform="translate(354,790)"/>
<path d="M0 0 C0.99 0 1.98 0 3 0 C3.66 1.65 4.32 3.3 5 5 C4.401875 4.773125 3.80375 4.54625 3.1875 4.3125 C2.1046875 4.1578125 2.1046875 4.1578125 1 4 C-0.77190909 5.35444301 -0.77190909 5.35444301 -2 7 C-2.33 6.34 -2.66 5.68 -3 5 C-1.75 2.375 -1.75 2.375 0 0 Z " fill="#292929" transform="translate(947,788)"/>
<path d="M0 0 C2.9719385 1.12451727 5.33440687 2.22293791 8 4 C8 4.66 8 5.32 8 6 C2.25 5.25 2.25 5.25 0 3 C0 2.01 0 1.02 0 0 Z " fill="#444444" transform="translate(352,804)"/>
<path d="M0 0 C0.66 0 1.32 0 2 0 C0.66087415 4.38259368 -1.12225036 6.54093925 -5 9 C-5.99 8.67 -6.98 8.34 -8 8 C-6.50260417 6.79557292 -5.00520833 5.59114583 -3.5078125 4.38671875 C-1.74707893 2.87729455 -1.74707893 2.87729455 0 0 Z " fill="#2B2B2B" transform="translate(704,800)"/>
<path d="M0 0 C0.99 0.33 1.98 0.66 3 1 C0.63707344 3.52588702 -0.66462511 4.88820837 -4 6 C-2.84826645 3.53199953 -1.95216435 1.95216435 0 0 Z " fill="#393939" transform="translate(615,789)"/>
</svg>
